<?xml version="1.0" encoding="UTF-8"?><svg id="Layer_1" xmlns="http://www.w3.org/2000/svg" viewBox="0 0 500 500"><defs><style>.cls-1{isolation:isolate;opacity:.25;}.cls-1,.cls-2{fill:#0f6788;}</style></defs><path class="cls-1" d="M329.8,209.9h0c0-66.22-53.68-119.91-119.9-119.92-50.77,0-96.03,31.96-113.01,79.8,.06-66.21,53.78-119.85,119.99-119.79,66.21,.06,119.85,53.78,119.79,119.99-.01,13.6-2.34,27.09-6.87,39.91h0Z"/><path class="cls-2" d="M432.02,416.11l-130.91-155.23c48.34-47.27,49.2-124.78,1.93-173.12-47.27-48.34-124.78-49.2-173.12-1.93-48.34,47.27-49.2,124.78-1.93,173.12,41.13,42.06,106.35,48.91,155.33,16.33l131.22,155.57c4.07,4.82,11.28,5.43,16.11,1.36h0c4.83-4.07,5.44-11.27,1.37-16.1h0ZM135.81,240.58c-37.15-44.06-31.56-109.89,12.5-147.05,44.06-37.15,109.89-31.56,147.05,12.5,37.15,44.06,31.56,109.89-12.5,147.05-44.05,37.16-109.88,31.57-147.04-12.49,0,0,0,0-.01-.01Z"/><path class="cls-2" d="M211.97,146.32c-6.77,.05-13.43,1.8-19.35,5.1l-3.9-10.79c3.64-1.9,7.5-3.36,11.48-4.35,4.45-1.13,9.02-1.68,13.6-1.65,5.71,0,10.38,.77,14.03,2.32,3.33,1.32,6.33,3.34,8.8,5.93,2.13,2.27,3.7,5.01,4.58,8,.82,2.75,1.25,5.6,1.27,8.47,.06,3.13-.61,6.24-1.94,9.07-1.3,2.65-2.92,5.15-4.8,7.43-1.94,2.35-4.05,4.55-6.31,6.6-2.24,2.04-4.34,4.22-6.3,6.53-1.9,2.24-3.51,4.71-4.8,7.35-1.33,2.78-2,5.84-1.95,8.92v1.65c0,.56,.05,1.11,.15,1.66h-11.76c-.41-2.08-.61-4.19-.6-6.31-.04-2.99,.55-5.95,1.73-8.7,1.16-2.61,2.64-5.05,4.42-7.28,1.77-2.22,3.67-4.32,5.7-6.3,2-1.95,3.9-3.92,5.7-5.93,1.73-1.9,3.22-4.02,4.42-6.3,1.16-2.22,1.75-4.7,1.73-7.2,.14-3.84-1.32-7.56-4.05-10.27-2.7-2.63-6.66-3.95-11.86-3.95Zm9.46,86.56c.03,2.61-.94,5.13-2.7,7.05-4.08,4-10.62,4-14.7,0-3.61-4.01-3.61-10.09,0-14.1,4.08-4,10.62-4,14.7,0,1.77,1.92,2.74,4.44,2.7,7.05Z"/><ellipse class="cls-1" cx="250" cy="429.6" rx="184.71" ry="20.4"/></svg>