<?xml version="1.0" encoding="UTF-8"?><svg id="Layer_1" xmlns="http://www.w3.org/2000/svg" viewBox="0 0 500 500"><defs><style>.cls-1{opacity:.14;}.cls-1,.cls-2,.cls-3{fill:#0f6788;}.cls-1,.cls-3{isolation:isolate;}.cls-3{opacity:.19;}</style></defs><path class="cls-1" d="M332.2,378.9c-.46-.26-.94-.5-1.42-.72s-.99-.5-1.51-.74c-1.81-.8-3.71-1.6-5.68-2.47-.66-.24-1.35-.52-2.01-.8-.27-.11-.58-.2-.86-.31l-8.28,14.3-5.16,8.97-2.72,4.7h0l-4.8,8.26h0l-1.72,2.98c-2.61,4.45-8.31,5.99-12.8,3.45l-22.45-12.95h0l-11.09-6.4h0l-11.55-6.69h0l-3.9-2.25-54.2-31.31c-5.54,.22-11,.52-16.33,.94l48.63,28.05-94.73-16.69c-2.54-.44-4.78-1.91-6.2-4.06-1.08,.21-2.12,.43-3.13,.68-3.16,.72-6.24,1.48-9.2,2.28h0c-31.35,8.47-51.08,20.83-51.08,34.59,0,25.56,68.01,46.25,151.95,46.25s151.93-20.7,151.93-46.25c0-8.69-7.9-16.87-21.68-23.8Zm-156.58,9.28h-55.89c-5.22,0-9.45-4.24-9.44-9.46h0v-2.08l65.33,11.54Z"/><path class="cls-3" d="M321.3,247.44c0,1.89-.09,3.78-.3,5.66-.06,.61-.14,1.21-.22,1.78-.36,3.12-1.01,6.2-1.94,9.2-.42,1.34-.86,2.69-1.34,4-1.35,3.56-3.07,6.97-5.1,10.19-.44,.66-.88,1.32-1.32,1.95-2.39,3.47-5.17,6.66-8.29,9.5-.36,.36-.72,.69-1.07,.99-2.73,2.42-5.69,4.56-8.84,6.4-2.76,1.63-5.65,3.03-8.65,4.18-2.94,1.13-5.97,2.01-9.06,2.61h0c-3.76,.77-7.58,1.16-11.42,1.15h-.52c-3.45-.02-6.89-.36-10.27-1.02h0c-.11-.02-.22-.04-.33-.08h0c-3.16-.58-6.26-1.46-9.25-2.64h0c-8.82-3.37-16.68-8.84-22.89-15.95-2.36-2.7-4.48-5.6-6.32-8.68v-.06h0c-2-3.44-3.65-7.07-4.91-10.84-1.08-2.99-1.89-6.07-2.42-9.2-.49-3.02-.72-6.08-.71-9.15v-.43c.03-4.14,.51-8.27,1.43-12.31,1.08-4.88,2.8-9.58,5.13-14,1.77-3.37,3.85-6.55,6.23-9.52,3.24-4,7.01-7.55,11.2-10.55,.44-.35,.89-.68,1.37-.98,.5-.34,1.02-.69,1.54-.99h0c2.74-1.73,5.61-3.22,8.59-4.47,4.19-1.74,8.56-2.98,13.04-3.68,2.92-.47,5.88-.7,8.84-.69h.14c20.68-.03,39.78,11.03,50.05,28.97,.44,.74,.85,1.48,1.23,2.22,4.2,8.19,6.4,17.26,6.4,26.46v-.03Z"/><path class="cls-2" d="M332.59,246.71c-.14-12.9-3.88-25.5-10.81-36.38-12.05-18.89-32.56-30.72-54.94-31.71-1.05-.06-2.09-.08-3.13-.08-.69,0-1.43,0-2.14,.05-4.77,.13-9.51,.77-14.15,1.9-2.26,.53-4.49,1.18-6.67,1.97-3.75,1.33-7.38,2.98-10.84,4.94-3.67,2.05-7.13,4.44-10.35,7.14-3.9,3.24-7.43,6.91-10.52,10.93-2.32,3-4.37,6.2-6.14,9.55-2.36,4.38-4.22,9-5.55,13.79-1.1,3.87-1.84,7.83-2.22,11.83h0c-.22,2.22-.34,4.5-.34,6.78,0,.71,0,1.45,.06,2.19h0c.08,2.77,.35,5.53,.8,8.27,.47,3.13,1.17,6.22,2.09,9.25,.63,2.17,1.38,4.31,2.25,6.4,4.35,10.61,11.28,19.97,20.18,27.2h.09l.05,.08c5.7,4.69,12.14,8.4,19.06,10.98h.08c7.75,2.95,15.98,4.46,24.28,4.45,3.1,0,6.2-.21,9.28-.62,2.22-.31,4.42-.72,6.58-1.24h0c3.08-.73,6.11-1.68,9.07-2.83,2.6-1,5.13-2.16,7.58-3.48,5.76-3.08,11.05-6.97,15.71-11.56,.35-.36,.71-.69,1.01-1.04,2.94-2.97,5.6-6.21,7.95-9.67,.44-.65,.88-1.34,1.29-2.03,2.04-3.19,3.78-6.56,5.21-10.07h0c.52-1.26,1.02-2.58,1.46-3.9,1.21-3.47,2.12-7.03,2.74-10.65,.19-1.12,.36-2.25,.5-3.4,.35-2.78,.52-5.57,.52-8.37,0-.22,0-.44-.02-.66Zm-5.24,6.4c-.08,1.15-.22,2.31-.39,3.46-.49,3.66-1.34,7.26-2.51,10.75-.44,1.34-.91,2.64-1.46,3.93h0c-1.4,3.53-3.12,6.92-5.13,10.14l-1.32,1.98c-2.34,3.48-5.04,6.7-8.07,9.6-.36,.38-.69,.71-1.04,1.04-2.59,2.44-5.38,4.66-8.35,6.62h0c-2.56,1.7-5.23,3.22-8,4.55-2.62,1.25-5.33,2.32-8.1,3.2h0c-3.24,1.03-6.57,1.79-9.94,2.27-2.53,.37-5.08,.6-7.63,.66h-1.64c-23.42-.02-44.96-12.83-56.15-33.41-1.21-2.25-2.27-4.56-3.2-6.94-1.32-3.16-2.36-6.43-3.11-9.78-.62-2.82-1.06-5.69-1.29-8.57-.16-1.73-.22-3.46-.22-5.21,0-1.35,.06-2.69,.14-4,.53-9.05,3.02-17.89,7.3-25.88,1.77-3.36,3.84-6.55,6.18-9.54,8.4-10.77,20.05-18.54,33.21-22.18,2.41-.67,4.86-1.19,7.33-1.54,5.59-.88,11.27-1,16.88-.34,2.5,.26,4.98,.69,7.43,1.29h0c12.28,2.84,23.44,9.28,32.04,18.5h0c1.72,1.82,3.32,3.74,4.8,5.76,1.76,2.34,3.32,4.82,4.69,7.41,1.32,2.38,2.48,4.85,3.46,7.39,2.41,6.23,3.83,12.8,4.2,19.47,.08,1.21,.11,2.44,.11,3.68,.02,1.89-.05,3.79-.22,5.67h0Z"/><path class="cls-2" d="M270.41,220.21c.08-2-.6-3.96-1.9-5.47-1.22-1.36-2.97-2.11-4.8-2.08-.62,.06-1.23,.17-1.82,.33-.92,.07-1.82,.34-2.62,.8-.46,.24-.87,.56-1.22,.94-.4,.44-.71,.96-.9,1.53-.38,.98-.61,2.02-.66,3.08-.1,.62-.17,1.24-.2,1.86,0,1.02,.06,2.58,.22,4.73,.09,.68,.17,1.48,.28,2.4,.19,1.45,.38,3.2,.63,5.13,.3,2.53,.69,5.49,1.14,8.87l.8,5.38,2.14,13.79c1.86,0,3.2-.09,3.89-.17,.69-3.05,1.23-6.12,1.6-9.23,.13-.91,.24-1.84,.35-2.8l1.24-9.39,.58-4.45,.38-2.8c.36-3.59,.6-6.53,.7-8.8,.1-1.3,.11-2.34,.11-3.2,.02-.15,.04-.3,.05-.45Zm.54,52.81c-.19-.8-.51-1.56-.96-2.25h0c-.29-.43-.62-.83-.98-1.21-1.28-1.32-3.02-2.1-4.86-2.16h-.36c-1.87,0-3.71,.87-5.54,2.58-.95,.89-1.61,2.06-1.87,3.34v.06c-.09,.45-.14,.91-.14,1.37,0,.42,.03,.84,.11,1.26,.26,1.52,.99,2.92,2.09,4,1.46,1.45,3.45,2.24,5.51,2.19,.83,0,1.66-.13,2.45-.38,1.04-.35,1.98-.94,2.74-1.73,1.35-1.41,2.08-3.3,2.03-5.25,0-.61-.07-1.22-.22-1.82h0Z"/><path class="cls-2" d="M325.14,366.23v.06l-3.57,6.11v6.34c0,5.09-4.05,9.25-9.14,9.4l-5.16,8.97h14.85c3.25,0,6.23-1.83,7.69-4.74v-.06c.6-1.18,.91-2.49,.91-3.81v-32.04l-5.58,9.77Zm5.55-274.29c-.53-4.32-4.19-7.57-8.55-7.58h-22.52l20.18,11.64,10.99,6.34v-9.37c0-.35-.04-.7-.1-1.04Zm-90.65,298.44h0l-3.9-2.25H119.73c-5.22,0-9.45-4.24-9.44-9.46h0V102.77c.01-5.2,4.24-9.41,9.44-9.41h38.96l1.21-6.87c.14-.73,.35-1.44,.63-2.12h-50.82c-4.75,0-8.61,3.86-8.63,8.61V388.51c0,4.76,3.87,8.61,8.63,8.61H251.63l-11.59-6.73ZM202.14,84.37l28.23,4.97h0l9.6,1.7h0l3.9-6.67h-41.73Z"/><path class="cls-2" d="M143.87,177.37l-1.98,11.35h-10.02c-3.06-.06-5.5-2.58-5.44-5.65,0-.01,0-.03,0-.04,0-1.49,.58-2.92,1.6-4,1.01-1.05,2.39-1.65,3.85-1.65h11.99Z"/><path class="cls-2" d="M165.31,187.42l7.31,1.3h-11.78c.99-.87,2.26-1.36,3.58-1.38,.3,0,.6,.03,.9,.08Z"/><path class="cls-2" d="M131.88,203.46h7.41l-2,11.33h-5.41c-1.36,.01-2.68-.51-3.66-1.46-2.3-2.23-2.39-5.9-.19-8.23,1.01-1.05,2.4-1.64,3.85-1.65h0Z"/><path class="cls-2" d="M130.01,255.95l-1.7,9.6c-2.38-2.18-2.54-5.87-.36-8.25,.02-.02,.04-.04,.06-.06,.56-.58,1.25-1.02,2.01-1.29Z"/><path class="cls-2" d="M129.67,282.17l-3.2,5.6c-.02-.13-.02-.26,0-.38,0-1.49,.57-2.93,1.6-4,.44-.51,.99-.92,1.6-1.22Z"/><path class="cls-2" d="M131.88,229.54h2.8l-1.98,11.34h-.8c-3.06-.06-5.5-2.58-5.44-5.65,0-.01,0-.02,0-.03,0-1.49,.57-2.92,1.6-4,1-1.04,2.37-1.64,3.82-1.66Z"/><path class="cls-2" d="M115.06,307.41c-.42,.71-.74,1.49-.93,2.3,.23-.8,.55-1.57,.96-2.3l8.4-14.55v-.06l-8.43,14.62Zm3.58,12.95h0l-.08-.06,.08,.06Zm-3.58-12.95c-.42,.71-.74,1.49-.93,2.3,.23-.8,.55-1.57,.96-2.3l8.4-14.55v-.06l-8.43,14.62Zm3.58,12.95h0l-.08-.06,.08,.06Zm-3.58-12.95c-.42,.71-.74,1.49-.93,2.3,.23-.8,.55-1.57,.96-2.3l8.4-14.55v-.06l-8.43,14.62Zm3.58,12.95h0l-.08-.06,.08,.06Zm-3.58-12.95c-.42,.71-.74,1.49-.93,2.3,.23-.8,.55-1.57,.96-2.3l8.4-14.55v-.06l-8.43,14.62Zm3.58,12.95h0l-.08-.06,.08,.06Zm-3.58-12.95c-.42,.71-.74,1.49-.93,2.3,.23-.8,.55-1.57,.96-2.3l8.4-14.55v-.06l-8.43,14.62Zm3.58,12.95h0l-.08-.06,.08,.06Zm-3.58-12.95c-.42,.71-.74,1.49-.93,2.3,.23-.8,.55-1.57,.96-2.3l8.4-14.55v-.06l-8.43,14.62Zm3.58,12.95h0l-.08-.06,.08,.06Zm-3.58-12.95c-.42,.71-.74,1.49-.93,2.3,.23-.8,.55-1.57,.96-2.3l8.4-14.55v-.06l-8.43,14.62Zm3.58,12.95h0l-.08-.06,.08,.06Zm-3.58-12.95c-.42,.71-.74,1.49-.93,2.3,.23-.8,.55-1.57,.96-2.3l8.4-14.55v-.06l-8.43,14.62Zm3.58,12.95h0l-.08-.06,.08,.06Zm-3.58-12.95c-.42,.71-.74,1.49-.93,2.3,.23-.8,.55-1.57,.96-2.3l8.4-14.55v-.06l-8.43,14.62Zm3.58,12.95h0l-.08-.06,.08,.06Zm-3.58-12.95c-.42,.71-.74,1.49-.93,2.3,.23-.8,.55-1.57,.96-2.3l8.4-14.55v-.06l-8.43,14.62Zm3.58,12.95h0l-.08-.06,.08,.06Zm-3.58-12.95c-.42,.71-.74,1.49-.93,2.3,.23-.8,.55-1.57,.96-2.3l8.4-14.55v-.06l-8.43,14.62Zm3.58,12.95h0l-.08-.06,.08,.06Zm-3.58-12.95c-.42,.71-.74,1.49-.93,2.3,.23-.8,.55-1.57,.96-2.3l8.4-14.55v-.06l-8.43,14.62Zm3.58,12.95h0l-.08-.06,.08,.06Zm-3.58-12.95c-.42,.71-.74,1.49-.93,2.3,.23-.8,.55-1.57,.96-2.3l8.4-14.55v-.06l-8.43,14.62Zm3.58,12.95h0l-.08-.06,.08,.06Zm-3.58-12.95c-.42,.71-.74,1.49-.93,2.3,.23-.8,.55-1.57,.96-2.3l8.4-14.55v-.06l-8.43,14.62Zm3.58,12.95h0l-.08-.06,.08,.06Zm-3.58-12.95c-.42,.71-.74,1.49-.93,2.3,.23-.8,.55-1.57,.96-2.3l8.4-14.55v-.06l-8.43,14.62Zm3.58,12.95h0l-.08-.06,.08,.06Zm-3.58-12.95c-.42,.71-.74,1.49-.93,2.3,.23-.8,.55-1.57,.96-2.3l8.4-14.55v-.06l-8.43,14.62Zm3.58,12.95h0l-.08-.06,.08,.06Zm-3.58-12.95c-.42,.71-.74,1.49-.93,2.3,.23-.8,.55-1.57,.96-2.3l8.4-14.55v-.06l-8.43,14.62Zm3.58,12.95h0l-.08-.06,.08,.06Zm212.11,36.11l-5.6,9.77v.06l-1.53,8.67-3.18,17.71v.06l-.42,2.22c-.12,.74-.34,1.47-.65,2.16-1.76,3.97-5.99,6.23-10.27,5.5l-4.53-.8h0l-4.8,8.26h0l9.6,1.7h0l8.03,1.44c4.69,.83,9.16-2.29,9.99-6.98,0,0,0-.01,0-.02l2.45-13.8v-.06l.9-5.13v-.17l1.42-8.12,1.67-9.54,4.67-26.4-7.77,13.47Zm-215.69-49.06c-.42,.71-.74,1.49-.93,2.3,.23-.8,.55-1.57,.96-2.3l8.4-14.55v-.06l-8.43,14.62Zm3.58,12.95h0l-.08-.06,.08,.06Zm-3.58-12.95c-.42,.71-.74,1.49-.93,2.3,.23-.8,.55-1.57,.96-2.3l8.4-14.55v-.06l-8.43,14.62Zm3.58,12.95h0l-.08-.06,.08,.06Zm-3.58-12.95c-.42,.71-.74,1.49-.93,2.3,.23-.8,.55-1.57,.96-2.3l8.4-14.55v-.06l-8.43,14.62Zm3.58,12.95h0l-.08-.06,.08,.06Zm-3.58-12.95c-.42,.71-.74,1.49-.93,2.3,.23-.8,.55-1.57,.96-2.3l8.4-14.55v-.06l-8.43,14.62Zm3.58,12.95h0l-.08-.06,.08,.06Zm-3.58-12.95c-.42,.71-.74,1.49-.93,2.3,.23-.8,.55-1.57,.96-2.3l8.4-14.55v-.06l-8.43,14.62Zm3.58,12.95h0l-.08-.06,.08,.06Zm-3.58-12.95c-.42,.71-.74,1.49-.93,2.3,.23-.8,.55-1.57,.96-2.3l8.4-14.55v-.06l-8.43,14.62Zm3.58,12.95h0l-.08-.06,.08,.06Zm-3.58-12.95c-.42,.71-.74,1.49-.93,2.3,.23-.8,.55-1.57,.96-2.3l8.4-14.55v-.06l-8.43,14.62Zm3.58,12.95h0l-.08-.06,.08,.06Zm-3.58-12.95c-.42,.71-.74,1.49-.93,2.3,.23-.8,.55-1.57,.96-2.3l8.4-14.55v-.06l-8.43,14.62Zm3.58,12.95h0l-.08-.06,.08,.06Zm-3.58-12.95c-.42,.71-.74,1.49-.93,2.3,.23-.8,.55-1.57,.96-2.3l8.4-14.55v-.06l-8.43,14.62Zm3.58,12.95h0l-.08-.06,.08,.06Zm-3.58-12.95c-.42,.71-.74,1.49-.93,2.3,.23-.8,.55-1.57,.96-2.3l8.4-14.55v-.06l-8.43,14.62Zm3.58,12.95h0l-.08-.06,.08,.06Zm-3.58-12.95c-.42,.71-.74,1.49-.93,2.3,.23-.8,.55-1.57,.96-2.3l8.4-14.55v-.06l-8.43,14.62Zm3.58,12.95h0l-.08-.06,.08,.06Zm-3.58-12.95c-.42,.71-.74,1.49-.93,2.3,.23-.8,.55-1.57,.96-2.3l8.4-14.55v-.06l-8.43,14.62Zm3.58,12.95h0l-.08-.06,.08,.06Zm-3.58-12.95c-.42,.71-.74,1.49-.93,2.3,.23-.8,.55-1.57,.96-2.3l8.4-14.55v-.06l-8.43,14.62Zm3.58,12.95h0l-.08-.06,.08,.06Zm-3.58-12.95c-.42,.71-.74,1.49-.93,2.3,.23-.8,.55-1.57,.96-2.3l8.4-14.55v-.06l-8.43,14.62Zm3.58,12.95h0l-.08-.06,.08,.06Zm-3.58-12.95c-.42,.71-.74,1.49-.93,2.3,.23-.8,.55-1.57,.96-2.3l8.4-14.55v-.06l-8.43,14.62Zm3.58,12.95h0l-.08-.06,.08,.06Zm-3.58-12.95c-.42,.71-.74,1.49-.93,2.3,.23-.8,.55-1.57,.96-2.3l8.4-14.55v-.06l-8.43,14.62Zm3.58,12.95h0l-.08-.06,.08,.06Zm-3.58-12.95c-.42,.71-.74,1.49-.93,2.3,.23-.8,.55-1.57,.96-2.3l8.4-14.55v-.06l-8.43,14.62Zm3.58,12.95h0l-.08-.06,.08,.06Zm-3.58-12.95c-.42,.71-.74,1.49-.93,2.3,.23-.8,.55-1.57,.96-2.3l8.4-14.55v-.06l-8.43,14.62Zm3.58,12.95h0l-.08-.06,.08,.06ZM371.71,105.17l-26.08-4.61h0l-14.85-2.59h0l-10.95-1.95,10.99,6.34,11.69,6.76,17.85,3.14c5.13,.91,8.56,5.8,7.65,10.93,0,0,0,0,0,0l-.1,.57h0l8.43,4.89,1.67-9.43h0l.72-4.1c.82-4.69-2.32-9.15-7.01-9.97,0,0,0,0,0,0Zm-120.08,291.95h0l-11.55-6.69h0l-12.8-2.25-13.01-2.31-94.66-16.66c-5.12-.92-8.54-5.8-7.66-10.93l5.02-28.52,1.66-9.39h0l-.08-.06c-.74-.42-1.42-.94-2-1.56-2.32-2.38-3.23-5.79-2.4-9.01,.23-.8,.55-1.57,.96-2.3l8.4-14.55v-.06l4.67-26.4v-.05l.13-.8v-.04l1.71-9.6,2.66-15.07h0l1.98-11.34,2.56-14.72,2.01-11.35,2.6-14.74,1.98-11.35,14.82-84.01,1.21-6.87c.15-.72,.37-1.43,.66-2.11,1.76-3.99,6.02-6.27,10.32-5.52l31.31,5.52h0l28.23,4.97h0l9.6,1.7,3.9-6.67,.91-1.6-9.6-1.66h0l-72.62-12.8c-4.69-.83-9.16,2.3-9.99,7,0,0,0,0,0,0l-1.6,9.08-1.6,8.99-14.83,84.01-2,11.35-2.66,15.13h0l-1.68,9.43v.04l-13.41,76.25v.06l-4.47,25.25v.17l-1.73,9.77h0l-7.35,41.46c-.1,.51-.14,1.02-.14,1.54v.3c.17,4.05,3.13,7.43,7.11,8.15l2.06,.36h0l65.39,11.54,50.74,8.94,10.57,1.87,25.8,4.56-11.1-6.43Z"/><path class="cls-2" d="M196.42,166.46l-6.01,10.47-9.6-1.7-12.94-2.28c-3.07-.68-5.02-3.72-4.34-6.79,.56-2.55,2.78-4.39,5.39-4.47,.3,0,.61,.03,.9,.09l16.99,2.99,9.6,1.7Z"/><path class="cls-2" d="M182.59,190.49l-6.04,10.46-9.6-1.7-3.6-.62c-3-.59-4.96-3.51-4.37-6.51,0,0,0-.02,0-.02,.22-1.29,.87-2.48,1.84-3.35,.99-.87,2.25-1.35,3.57-1.37,.3,0,.61,.03,.9,.08l7.31,1.29,.38,.06,9.6,1.7Z"/><path class="cls-2" d="M154.72,238.79c-1.46,.16-2.78,.93-3.66,2.11-.6,.73-1,1.61-1.15,2.55-.19,1.04-.09,2.12,.3,3.1l3.26-5.66,1.24-2.11Z"/><path class="cls-2" d="M170.27,214.79h-1.73l-5.87,10.19-3.87-.69c-1.99-.37-3.6-1.82-4.18-3.76-.3-.89-.36-1.85-.19-2.78,.17-1.12,.69-2.15,1.48-2.96,.77-.88,1.82-1.47,2.97-1.68h.06c.3-.06,.6-.08,.9-.08,.31,0,.63,.02,.94,.08l7.91,1.4h0l1.59,.28Z"/><path class="cls-2" d="M360.32,112.25l-17.85-3.14,25.4,14.65,.1-.57c.91-5.13-2.51-10.03-7.64-10.94h0Zm-53.02,284.84l-2.72,4.7,4.53,.8c2.12,.38,4.3,0,6.18-1.04l2.6-4.46h-10.59Zm-192.21-89.69l8.4-14.55v-.06l2.93-5.02h0l3.2-5.6h0l8.8-15.2,6.56-11.38,5.26-9.09,3.25-5.64h0l.25-.44,.95-1.67h0l5.34-9.23,2.62-4.56,5.92-10.18,.14-.28,6.4-11.07,1.48-2.52,2.85-4.96,3.16-5.49h0l1.05-1.76,6.56-11.35,.24-.45h0l4.76-8.24,1.22-2.22h0l10.87-18.8,4.94-8.6,1.6-2.77,4.42-7.69,20.37-35.21,1.32-2.31,3.84-6.67-3.87,6.67-9.6-1.7-2.33,4-19.35,33.6-5.18,8.98-.26,.38-6.53,11.37-9.84,17.04h0l-6.06,10.45h0l-1.24,2.15-6.53,11.35-.06,.06h0l-6.02,10.44h0l-2.4,4.21-5.6,9.67h0l-.98,1.68-3.3,5.74-5.18,9-6.56,11.35-8.5,14.75-5.88,10.14h0l-.34,.58v.05l-13.37,23.22v.06l-4.47,25.25v10.95l6.69,3.9,10.68,6.15,16.05,9.31,21.82,12.6,48.63,28.05,4,2.31h9.01l12.8,2.25-3.9-2.25-54.2-31.31-20.21-11.66-19.65-11.38-23.4-13.47h0l-.08-.06c-.74-.42-1.42-.94-2-1.56-2.32-2.38-3.23-5.79-2.4-9.01,.21-.8,.52-1.58,.91-2.31ZM360.32,112.25l-17.85-3.14,25.4,14.65,.1-.57c.91-5.13-2.51-10.03-7.64-10.94h0Zm-53.02,284.84l-2.72,4.7,4.53,.8c2.12,.38,4.3,0,6.18-1.04l2.6-4.46h-10.59Zm-192.21-89.69l8.4-14.55v-.06l2.93-5.02h0l3.2-5.6h0l8.8-15.2,6.56-11.38,5.26-9.09,3.25-5.64h0l.25-.44,.95-1.67h0l5.34-9.23,2.62-4.56,5.92-10.18,.14-.28,6.4-11.07,1.48-2.52,2.85-4.96,3.16-5.49h0l1.05-1.76,6.56-11.35,.24-.45h0l4.76-8.24,1.22-2.22h0l10.87-18.8,4.94-8.6,1.6-2.77,4.42-7.69,20.37-35.21,1.32-2.31,3.84-6.67-3.87,6.67-9.6-1.7-2.33,4-19.35,33.6-5.18,8.98-.26,.38-6.53,11.37-9.84,17.04h0l-6.06,10.45h0l-1.24,2.15-6.53,11.35-.06,.06h0l-6.02,10.44h0l-2.4,4.21-5.6,9.67h0l-.98,1.68-3.3,5.74-5.18,9-6.56,11.35-8.5,14.75-5.88,10.14h0l-.34,.58v.05l-13.37,23.22v.06l-4.47,25.25v10.95l6.69,3.9,10.68,6.15,16.05,9.31,21.82,12.6,48.63,28.05,4,2.31h9.01l12.8,2.25-3.9-2.25-54.2-31.31-20.21-11.66-19.65-11.38-23.4-13.47h0l-.08-.06c-.74-.42-1.42-.94-2-1.56-2.32-2.38-3.23-5.79-2.4-9.01,.21-.8,.52-1.58,.91-2.31ZM360.32,112.25l-17.85-3.14,25.4,14.65,.1-.57c.91-5.13-2.51-10.03-7.64-10.94h0Zm-53.02,284.84l-2.72,4.7,4.53,.8c2.12,.38,4.3,0,6.18-1.04l2.6-4.46h-10.59Zm-192.21-89.69l8.4-14.55v-.06l2.93-5.02h0l3.2-5.6h0l8.8-15.2,6.56-11.38,5.26-9.09,3.25-5.64h0l.25-.44,.95-1.67h0l5.34-9.23,2.62-4.56,5.92-10.18,.14-.28,6.4-11.07,1.48-2.52,2.85-4.96,3.16-5.49h0l1.05-1.76,6.56-11.35,.24-.45h0l4.76-8.24,1.22-2.22h0l10.87-18.8,4.94-8.6,1.6-2.77,4.42-7.69,20.37-35.21,1.32-2.31,3.84-6.67-3.87,6.67-9.6-1.7-2.33,4-19.35,33.6-5.18,8.98-.26,.38-6.53,11.37-9.84,17.04h0l-6.06,10.45h0l-1.24,2.15-6.53,11.35-.06,.06h0l-6.02,10.44h0l-2.4,4.21-5.6,9.67h0l-.98,1.68-3.3,5.74-5.18,9-6.56,11.35-8.5,14.75-5.88,10.14h0l-.34,.58v.05l-13.37,23.22v.06l-4.47,25.25v10.95l6.69,3.9,10.68,6.15,16.05,9.31,21.82,12.6,48.63,28.05,4,2.31h9.01l12.8,2.25-3.9-2.25-54.2-31.31-20.21-11.66-19.65-11.38-23.4-13.47h0l-.08-.06c-.74-.42-1.42-.94-2-1.56-2.32-2.38-3.23-5.79-2.4-9.01,.21-.8,.52-1.58,.91-2.31ZM360.32,112.25l-17.85-3.14,25.4,14.65,.1-.57c.91-5.13-2.51-10.03-7.64-10.94h0Zm-53.02,284.84l-2.72,4.7,4.53,.8c2.12,.38,4.3,0,6.18-1.04l2.6-4.46h-10.59Zm-192.21-89.69l8.4-14.55v-.06l2.93-5.02h0l3.2-5.6h0l8.8-15.2,6.56-11.38,5.26-9.09,3.25-5.64h0l.25-.44,.95-1.67h0l5.34-9.23,2.62-4.56,5.92-10.18,.14-.28,6.4-11.07,1.48-2.52,2.85-4.96,3.16-5.49h0l1.05-1.76,6.56-11.35,.24-.45h0l4.76-8.24,1.22-2.22h0l10.87-18.8,4.94-8.6,1.6-2.77,4.42-7.69,20.37-35.21,1.32-2.31,3.84-6.67-3.87,6.67-9.6-1.7-2.33,4-19.35,33.6-5.18,8.98-.26,.38-6.53,11.37-9.84,17.04h0l-6.06,10.45h0l-1.24,2.15-6.53,11.35-.06,.06h0l-6.02,10.44h0l-2.4,4.21-5.6,9.67h0l-.98,1.68-3.3,5.74-5.18,9-6.56,11.35-8.5,14.75-5.88,10.14h0l-.34,.58v.05l-13.37,23.22v.06l-4.47,25.25v10.95l6.69,3.9,10.68,6.15,16.05,9.31,21.82,12.6,48.63,28.05,4,2.31h9.01l12.8,2.25-3.9-2.25-54.2-31.31-20.21-11.66-19.65-11.38-23.4-13.47h0l-.08-.06c-.74-.42-1.42-.94-2-1.56-2.32-2.38-3.23-5.79-2.4-9.01,.21-.8,.52-1.58,.91-2.31ZM360.32,112.25l-17.85-3.14,25.4,14.65,.1-.57c.91-5.13-2.51-10.03-7.64-10.94h0Zm-53.02,284.84l-2.72,4.7,4.53,.8c2.12,.38,4.3,0,6.18-1.04l2.6-4.46h-10.59Zm-192.21-89.69l8.4-14.55v-.06l2.93-5.02h0l3.2-5.6h0l8.8-15.2,6.56-11.38,5.26-9.09,3.25-5.64h0l.25-.44,.95-1.67h0l5.34-9.23,2.62-4.56,5.92-10.18,.14-.28,6.4-11.07,1.48-2.52,2.85-4.96,3.16-5.49h0l1.05-1.76,6.56-11.35,.24-.45h0l4.76-8.24,1.22-2.22h0l10.87-18.8,4.94-8.6,1.6-2.77,4.42-7.69,20.37-35.21,1.32-2.31,3.84-6.67-3.87,6.67-9.6-1.7-2.33,4-19.35,33.6-5.18,8.98-.26,.38-6.53,11.37-9.84,17.04h0l-6.06,10.45h0l-1.24,2.15-6.53,11.35-.06,.06h0l-6.02,10.44h0l-2.4,4.21-5.6,9.67h0l-.98,1.68-3.3,5.74-5.18,9-6.56,11.35-8.5,14.75-5.88,10.14h0l-.34,.58v.05l-13.37,23.22v.06l-4.47,25.25v10.95l6.69,3.9,10.68,6.15,16.05,9.31,21.82,12.6,48.63,28.05,4,2.31h9.01l12.8,2.25-3.9-2.25-54.2-31.31-20.21-11.66-19.65-11.38-23.4-13.47h0l-.08-.06c-.74-.42-1.42-.94-2-1.56-2.32-2.38-3.23-5.79-2.4-9.01,.21-.8,.52-1.58,.91-2.31ZM360.32,112.25l-17.85-3.14,25.4,14.65,.1-.57c.91-5.13-2.51-10.03-7.64-10.94h0Zm-53.02,284.84l-2.72,4.7,4.53,.8c2.12,.38,4.3,0,6.18-1.04l2.6-4.46h-10.59Zm-192.21-89.69l8.4-14.55v-.06l2.93-5.02h0l3.2-5.6h0l8.8-15.2,6.56-11.38,5.26-9.09,3.25-5.64h0l.25-.44,.95-1.67h0l5.34-9.23,2.62-4.56,5.92-10.18,.14-.28,6.4-11.07,1.48-2.52,2.85-4.96,3.16-5.49h0l1.05-1.76,6.56-11.35,.24-.45h0l4.76-8.24,1.22-2.22h0l10.87-18.8,4.94-8.6,1.6-2.77,4.42-7.69,20.37-35.21,1.32-2.31,3.84-6.67-3.87,6.67-9.6-1.7-2.33,4-19.35,33.6-5.18,8.98-.26,.38-6.53,11.37-9.84,17.04h0l-6.06,10.45h0l-1.24,2.15-6.53,11.35-.06,.06h0l-6.02,10.44h0l-2.4,4.21-5.6,9.67h0l-.98,1.68-3.3,5.74-5.18,9-6.56,11.35-8.5,14.75-5.88,10.14h0l-.34,.58v.05l-13.37,23.22v.06l-4.47,25.25v10.95l6.69,3.9,10.68,6.15,16.05,9.31,21.82,12.6,48.63,28.05,4,2.31h9.01l12.8,2.25-3.9-2.25-54.2-31.31-20.21-11.66-19.65-11.38-23.4-13.47h0l-.08-.06c-.74-.42-1.42-.94-2-1.56-2.32-2.38-3.23-5.79-2.4-9.01,.21-.8,.52-1.58,.91-2.31ZM360.32,112.25l-17.85-3.14,25.4,14.65,.1-.57c.91-5.13-2.51-10.03-7.64-10.94h0Zm-53.02,284.84l-2.72,4.7,4.53,.8c2.12,.38,4.3,0,6.18-1.04l2.6-4.46h-10.59Zm-192.21-89.69l8.4-14.55v-.06l2.93-5.02h0l3.2-5.6h0l8.8-15.2,6.56-11.38,5.26-9.09,3.25-5.64h0l.25-.44,.95-1.67h0l5.34-9.23,2.62-4.56,5.92-10.18,.14-.28,6.4-11.07,1.48-2.52,2.85-4.96,3.16-5.49h0l1.05-1.76,6.56-11.35,.24-.45h0l4.76-8.24,1.22-2.22h0l10.87-18.8,4.94-8.6,1.6-2.77,4.42-7.69,20.37-35.21,1.32-2.31,3.84-6.67-3.87,6.67-9.6-1.7-2.33,4-19.35,33.6-5.18,8.98-.26,.38-6.53,11.37-9.84,17.04h0l-6.06,10.45h0l-1.24,2.15-6.53,11.35-.06,.06h0l-6.02,10.44h0l-2.4,4.21-5.6,9.67h0l-.98,1.68-3.3,5.74-5.18,9-6.56,11.35-8.5,14.75-5.88,10.14h0l-.34,.58v.05l-13.37,23.22v.06l-4.47,25.25v10.95l6.69,3.9,10.68,6.15,16.05,9.31,21.82,12.6,48.63,28.05,4,2.31h9.01l12.8,2.25-3.9-2.25-54.2-31.31-20.21-11.66-19.65-11.38-23.4-13.47h0l-.08-.06c-.74-.42-1.42-.94-2-1.56-2.32-2.38-3.23-5.79-2.4-9.01,.21-.8,.52-1.58,.91-2.31ZM360.32,112.25l-17.85-3.14,25.4,14.65,.1-.57c.91-5.13-2.51-10.03-7.64-10.94h0Zm-39.6,261.64l-8.28,14.26c5.09-.16,9.12-4.34,9.11-9.43v-6.31l-.83,1.48Zm-13.42,23.25l-2.72,4.7,4.53,.8c2.12,.38,4.3,0,6.18-1.04l2.6-4.46h-10.59Zm-192.21-89.74l8.4-14.55v-.06l2.93-5.02h0l3.2-5.6h0l8.8-15.2,6.56-11.38,5.26-9.09,3.25-5.64h0l.25-.44,.95-1.67h0l5.34-9.23,2.62-4.56,5.92-10.18,.14-.28,6.4-11.07,1.48-2.52,2.85-4.96,3.16-5.49h0l1.05-1.76,6.56-11.35,.24-.45h0l4.76-8.24,1.22-2.22h0l10.87-18.8,4.94-8.6,1.6-2.77,4.42-7.69,20.37-35.21,1.32-2.31,3.84-6.67-3.87,6.67-9.6-1.7-2.33,4-19.35,33.6-5.18,8.98-.26,.38-6.53,11.37-9.84,17.04h0l-6.06,10.45h0l-1.24,2.15-6.53,11.35-.06,.06h0l-6.02,10.44h0l-2.4,4.21-5.6,9.67h0l-.98,1.68-3.3,5.74-5.18,9-6.56,11.35-8.5,14.75-5.88,10.14h0l-.34,.58v.05l-13.37,23.22v.06l-4.47,25.25v10.95l6.69,3.9,10.68,6.15,16.05,9.31,21.82,12.6,48.63,28.05,4,2.31h9.01l12.8,2.25-3.9-2.25-54.2-31.31-20.21-11.66-19.65-11.38-23.4-13.47h0l-.08-.06c-.74-.42-1.42-.94-2-1.56-2.32-2.38-3.23-5.79-2.4-9.01,.21-.8,.52-1.58,.91-2.31ZM360.32,112.25l-17.85-3.14,25.4,14.65,.1-.57c.91-5.13-2.51-10.03-7.64-10.94h0Zm-39.6,261.64l-8.28,14.26c5.09-.16,9.12-4.34,9.11-9.43v-6.31l-.83,1.48Zm-13.42,23.25l-2.72,4.7,4.53,.8c2.12,.38,4.3,0,6.18-1.04l2.6-4.46h-10.59Zm-192.21-89.74l8.4-14.55v-.06l2.93-5.02h0l3.2-5.6h0l8.8-15.2,6.56-11.38,5.26-9.09,3.25-5.64h0l.25-.44,.95-1.67h0l5.34-9.23,2.62-4.56,5.92-10.18,.14-.28,6.4-11.07,1.48-2.52,2.85-4.96,3.16-5.49h0l1.05-1.76,6.56-11.35,.24-.45h0l4.76-8.24,1.22-2.22h0l10.87-18.8,4.94-8.6,1.6-2.77,4.42-7.69,20.37-35.21,1.32-2.31,3.84-6.67-3.87,6.67-9.6-1.7-2.33,4-19.35,33.6-5.18,8.98-.26,.38-6.53,11.37-9.84,17.04h0l-6.06,10.45h0l-1.24,2.15-6.53,11.35-.06,.06h0l-6.02,10.44h0l-2.4,4.21-5.6,9.67h0l-.98,1.68-3.3,5.74-5.18,9-6.56,11.35-8.5,14.75-5.88,10.14h0l-.34,.58v.05l-13.37,23.22v.06l-4.47,25.25v10.95l6.69,3.9,10.68,6.15,16.05,9.31,21.82,12.6,48.63,28.05,4,2.31h9.01l12.8,2.25-3.9-2.25-54.2-31.31-20.21-11.66-19.65-11.38-23.4-13.47h0l-.08-.06c-.74-.42-1.42-.94-2-1.56-2.32-2.38-3.23-5.79-2.4-9.01,.21-.8,.52-1.58,.91-2.31ZM360.32,112.25l-17.85-3.14,25.4,14.65,.1-.57c.91-5.13-2.51-10.03-7.64-10.94h0Zm-39.6,261.64l-8.28,14.26c5.09-.16,9.12-4.34,9.11-9.43v-6.31l-.83,1.48Zm-13.42,23.25l-2.72,4.7,4.53,.8c2.12,.38,4.3,0,6.18-1.04l2.6-4.46h-10.59Zm-192.21-89.74l8.4-14.55v-.06l2.93-5.02h0l3.2-5.6h0l8.8-15.2,6.56-11.38,5.26-9.09,3.25-5.64h0l.25-.44,.95-1.67h0l5.34-9.23,2.62-4.56,5.92-10.18,.14-.28,6.4-11.07,1.48-2.52,2.85-4.96,3.16-5.49h0l1.05-1.76,6.56-11.35,.24-.45h0l4.76-8.24,1.22-2.22h0l10.87-18.8,4.94-8.6,1.6-2.77,4.42-7.69,20.37-35.21,1.32-2.31,3.84-6.67-3.87,6.67-9.6-1.7-2.33,4-19.35,33.6-5.18,8.98-.26,.38-6.53,11.37-9.84,17.04h0l-6.06,10.45h0l-1.24,2.15-6.53,11.35-.06,.06h0l-6.02,10.44h0l-2.4,4.21-5.6,9.67h0l-.98,1.68-3.3,5.74-5.18,9-6.56,11.35-8.5,14.75-5.88,10.14h0l-.34,.58v.05l-13.37,23.22v.06l-4.47,25.25v10.95l6.69,3.9,10.68,6.15,16.05,9.31,21.82,12.6,48.63,28.05,4,2.31h9.01l12.8,2.25-3.9-2.25-54.2-31.31-20.21-11.66-19.65-11.38-23.4-13.47h0l-.08-.06c-.74-.42-1.42-.94-2-1.56-2.32-2.38-3.23-5.79-2.4-9.01,.21-.8,.52-1.58,.91-2.31ZM360.32,112.25l-17.85-3.14,25.4,14.65,.1-.57c.91-5.13-2.51-10.03-7.64-10.94h0Zm-39.6,261.64l-8.28,14.26c5.09-.16,9.12-4.34,9.11-9.43v-6.31l-.83,1.48Zm-13.42,23.25l-2.72,4.7,4.53,.8c2.12,.38,4.3,0,6.18-1.04l2.6-4.46h-10.59Zm-192.21-89.74l8.4-14.55v-.06l2.93-5.02h0l3.2-5.6h0l8.8-15.2,6.56-11.38,5.26-9.09,3.25-5.64h0l.25-.44,.95-1.67h0l5.34-9.23,2.62-4.56,5.92-10.18,.14-.28,6.4-11.07,1.48-2.52,2.85-4.96,3.16-5.49h0l1.05-1.76,6.56-11.35,.24-.45h0l4.76-8.24,1.22-2.22h0l10.87-18.8,4.94-8.6,1.6-2.77,4.42-7.69,20.37-35.21,1.32-2.31,3.84-6.67-3.87,6.67-9.6-1.7-2.33,4-19.35,33.6-5.18,8.98-.26,.38-6.53,11.37-9.84,17.04h0l-6.06,10.45h0l-1.24,2.15-6.53,11.35-.06,.06h0l-6.02,10.44h0l-2.4,4.21-5.6,9.67h0l-.98,1.68-3.3,5.74-5.18,9-6.56,11.35-8.5,14.75-5.88,10.14h0l-.34,.58v.05l-13.37,23.22v.06l-4.47,25.25v10.95l6.69,3.9,10.68,6.15,16.05,9.31,21.82,12.6,48.63,28.05,4,2.31h9.01l12.8,2.25-3.9-2.25-54.2-31.31-20.21-11.66-19.65-11.38-23.4-13.47h0l-.08-.06c-.74-.42-1.42-.94-2-1.56-2.32-2.38-3.23-5.79-2.4-9.01,.21-.8,.52-1.58,.91-2.31ZM360.32,112.25l-17.85-3.14,25.4,14.65,.1-.57c.91-5.13-2.51-10.03-7.64-10.94h0Zm-39.6,261.64l-8.28,14.26c5.09-.16,9.12-4.34,9.11-9.43v-6.31l-.83,1.48Zm-13.42,23.25l-2.72,4.7,4.53,.8c2.12,.38,4.3,0,6.18-1.04l2.6-4.46h-10.59Zm-192.21-89.74l8.4-14.55v-.06l2.93-5.02h0l3.2-5.6h0l8.8-15.2,6.56-11.38,5.26-9.09,3.25-5.64h0l.25-.44,.95-1.67h0l5.34-9.23,2.62-4.56,5.92-10.18,.14-.28,6.4-11.07,1.48-2.52,2.85-4.96,3.16-5.49h0l1.05-1.76,6.56-11.35,.24-.45h0l4.76-8.24,1.22-2.22h0l10.87-18.8,4.94-8.6,1.6-2.77,4.42-7.69,20.37-35.21,1.32-2.31,3.84-6.67-3.87,6.67-9.6-1.7-2.33,4-19.35,33.6-5.18,8.98-.26,.38-6.53,11.37-9.84,17.04h0l-6.06,10.45h0l-1.24,2.15-6.53,11.35-.06,.06h0l-6.02,10.44h0l-2.4,4.21-5.6,9.67h0l-.98,1.68-3.3,5.74-5.18,9-6.56,11.35-8.5,14.75-5.88,10.14h0l-.34,.58v.05l-13.37,23.22v.06l-4.47,25.25v10.95l6.69,3.9,10.68,6.15,16.05,9.31,21.82,12.6,48.63,28.05,4,2.31h9.01l12.8,2.25-3.9-2.25-54.2-31.31-20.21-11.66-19.65-11.38-23.4-13.47h0l-.08-.06c-.74-.42-1.42-.94-2-1.56-2.32-2.38-3.23-5.79-2.4-9.01,.21-.8,.52-1.58,.91-2.31ZM360.32,112.25l-17.85-3.14,25.4,14.65,.1-.57c.91-5.13-2.51-10.03-7.64-10.94h0Zm-39.6,261.64l-8.28,14.26c5.09-.16,9.12-4.34,9.11-9.43v-6.31l-.83,1.48Zm-13.42,23.25l-2.72,4.7,4.53,.8c2.12,.38,4.3,0,6.18-1.04l2.6-4.46h-10.59Zm-192.21-89.74l8.4-14.55v-.06l2.93-5.02h0l3.2-5.6h0l8.8-15.2,6.56-11.38,5.26-9.09,3.25-5.64h0l.25-.44,.95-1.67h0l5.34-9.23,2.62-4.56,5.92-10.18,.14-.28,6.4-11.07,1.48-2.52,2.85-4.96,3.16-5.49h0l1.05-1.76,6.56-11.35,.24-.45h0l4.76-8.24,1.22-2.22h0l10.87-18.8,4.94-8.6,1.6-2.77,4.42-7.69,20.37-35.21,1.32-2.31,3.84-6.67-3.87,6.67-9.6-1.7-2.33,4-19.35,33.6-5.18,8.98-.26,.38-6.53,11.37-9.84,17.04h0l-6.06,10.45h0l-1.24,2.15-6.53,11.35-.06,.06h0l-6.02,10.44h0l-2.4,4.21-5.6,9.67h0l-.98,1.68-3.3,5.74-5.18,9-6.56,11.35-8.5,14.75-5.88,10.14h0l-.34,.58v.05l-13.37,23.22v.06l-4.47,25.25v10.95l6.69,3.9,10.68,6.15,16.05,9.31,21.82,12.6,48.63,28.05,4,2.31h9.01l12.8,2.25-3.9-2.25-54.2-31.31-20.21-11.66-19.65-11.38-23.4-13.47h0l-.08-.06c-.74-.42-1.42-.94-2-1.56-2.32-2.38-3.23-5.79-2.4-9.01,.21-.8,.52-1.58,.91-2.31ZM360.32,112.25l-17.85-3.14,25.4,14.65,.1-.57c.91-5.13-2.51-10.03-7.64-10.94h0Zm-39.6,261.64l-8.28,14.26c5.09-.16,9.12-4.34,9.11-9.43v-6.31l-.83,1.48Zm-13.42,23.25l-2.72,4.7,4.53,.8c2.12,.38,4.3,0,6.18-1.04l2.6-4.46h-10.59Zm-192.21-89.74l8.4-14.55v-.06l2.93-5.02h0l3.2-5.6h0l8.8-15.2,6.56-11.38,5.26-9.09,3.25-5.64h0l.25-.44,.95-1.67h0l5.34-9.23,2.62-4.56,5.92-10.18,.14-.28,6.4-11.07,1.48-2.52,2.85-4.96,3.16-5.49h0l1.05-1.76,6.56-11.35,.24-.45h0l4.76-8.24,1.22-2.22h0l10.87-18.8,4.94-8.6,1.6-2.77,4.42-7.69,20.37-35.21,1.32-2.31,3.84-6.67-3.87,6.67-9.6-1.7-2.33,4-19.35,33.6-5.18,8.98-.26,.38-6.53,11.37-9.84,17.04h0l-6.06,10.45h0l-1.24,2.15-6.53,11.35-.06,.06h0l-6.02,10.44h0l-2.4,4.21-5.6,9.67h0l-.98,1.68-3.3,5.74-5.18,9-6.56,11.35-8.5,14.75-5.88,10.14h0l-.34,.58v.05l-13.37,23.22v.06l-4.47,25.25v10.95l6.69,3.9,10.68,6.15,16.05,9.31,21.82,12.6,48.63,28.05,4,2.31h9.01l12.8,2.25-3.9-2.25-54.2-31.31-20.21-11.66-19.65-11.38-23.4-13.47h0l-.08-.06c-.74-.42-1.42-.94-2-1.56-2.32-2.38-3.23-5.79-2.4-9.01,.21-.8,.52-1.58,.91-2.31ZM360.32,112.25l-17.85-3.14,25.4,14.65,.1-.57c.91-5.13-2.51-10.03-7.64-10.94h0Zm-39.6,261.64l-8.28,14.26c5.09-.16,9.12-4.34,9.11-9.43v-6.31l-.83,1.48Zm-13.42,23.25l-2.72,4.7,4.53,.8c2.12,.38,4.3,0,6.18-1.04l2.6-4.46h-10.59Zm-192.21-89.74l8.4-14.55v-.06l2.93-5.02h0l3.2-5.6h0l8.8-15.2,6.56-11.38,5.26-9.09,3.25-5.64h0l.25-.44,.95-1.67h0l5.34-9.23,2.62-4.56,5.92-10.18,.14-.28,6.4-11.07,1.48-2.52,2.85-4.96,3.16-5.49h0l1.05-1.76,6.56-11.35,.24-.45h0l4.76-8.24,1.22-2.22h0l10.87-18.8,4.94-8.6,1.6-2.77,4.42-7.69,20.37-35.21,1.32-2.31,3.84-6.67-3.87,6.67-9.6-1.7-2.33,4-19.35,33.6-5.18,8.98-.26,.38-6.53,11.37-9.84,17.04h0l-6.06,10.45h0l-1.24,2.15-6.53,11.35-.06,.06h0l-6.02,10.44h0l-2.4,4.21-5.6,9.67h0l-.98,1.68-3.3,5.74-5.18,9-6.56,11.35-8.5,14.75-5.88,10.14h0l-.34,.58v.05l-13.37,23.22v.06l-4.47,25.25v10.95l6.69,3.9,10.68,6.15,16.05,9.31,21.82,12.6,48.63,28.05,4,2.31h9.01l12.8,2.25-3.9-2.25-54.2-31.31-20.21-11.66-19.65-11.38-23.4-13.47h0l-.08-.06c-.74-.42-1.42-.94-2-1.56-2.32-2.38-3.23-5.79-2.4-9.01,.21-.8,.52-1.58,.91-2.31ZM360.32,112.25l-17.85-3.14,25.4,14.65,.1-.57c.91-5.13-2.51-10.03-7.64-10.94h0Zm-39.6,261.64l-8.28,14.26c5.09-.16,9.12-4.34,9.11-9.43v-6.31l-.83,1.48Zm-13.42,23.25l-2.72,4.7,4.53,.8c2.12,.38,4.3,0,6.18-1.04l2.6-4.46h-10.59Zm-192.21-89.74l8.4-14.55v-.06l2.93-5.02h0l3.2-5.6h0l8.8-15.2,6.56-11.38,5.26-9.09,3.25-5.64h0l.25-.44,.95-1.67h0l5.34-9.23,2.62-4.56,5.92-10.18,.14-.28,6.4-11.07,1.48-2.52,2.85-4.96,3.16-5.49h0l1.05-1.76,6.56-11.35,.24-.45h0l4.76-8.24,1.22-2.22h0l10.87-18.8,4.94-8.6,1.6-2.77,4.42-7.69,20.37-35.21,1.32-2.31,3.84-6.67-3.87,6.67-9.6-1.7-2.33,4-19.35,33.6-5.18,8.98-.26,.38-6.53,11.37-9.84,17.04h0l-6.06,10.45h0l-1.24,2.15-6.53,11.35-.06,.06h0l-6.02,10.44h0l-2.4,4.21-5.6,9.67h0l-.98,1.68-3.3,5.74-5.18,9-6.56,11.35-8.5,14.75-5.88,10.14h0l-.34,.58v.05l-13.37,23.22v.06l-4.47,25.25v10.95l6.69,3.9,10.68,6.15,16.05,9.31,21.82,12.6,48.63,28.05,4,2.31h9.01l12.8,2.25-3.9-2.25-54.2-31.31-20.21-11.66-19.65-11.38-23.4-13.47h0l-.08-.06c-.74-.42-1.42-.94-2-1.56-2.32-2.38-3.23-5.79-2.4-9.01,.21-.8,.52-1.58,.91-2.31ZM360.32,112.25l-17.85-3.14,25.4,14.65,.1-.57c.91-5.13-2.51-10.03-7.64-10.94h0Zm-39.6,261.64l-8.28,14.26c5.09-.16,9.12-4.34,9.11-9.43v-6.31l-.83,1.48Zm-13.42,23.25l-2.72,4.7,4.53,.8c2.12,.38,4.3,0,6.18-1.04l2.6-4.46h-10.59Zm-192.21-89.74l8.4-14.55v-.06l2.93-5.02h0l3.2-5.6h0l8.8-15.2,6.56-11.38,5.26-9.09,3.25-5.64h0l.25-.44,.95-1.67h0l5.34-9.23,2.62-4.56,5.92-10.18,.14-.28,6.4-11.07,1.48-2.52,2.85-4.96,3.16-5.49h0l1.05-1.76,6.56-11.35,.24-.45h0l4.76-8.24,1.22-2.22h0l10.87-18.8,4.94-8.6,1.6-2.77,4.42-7.69,20.37-35.21,1.32-2.31,3.84-6.67-3.87,6.67-9.6-1.7-2.33,4-19.35,33.6-5.18,8.98-.26,.38-6.53,11.37-9.84,17.04h0l-6.06,10.45h0l-1.24,2.15-6.53,11.35-.06,.06h0l-6.02,10.44h0l-2.4,4.21-5.6,9.67h0l-.98,1.68-3.3,5.74-5.18,9-6.56,11.35-8.5,14.75-5.88,10.14h0l-.34,.58v.05l-13.37,23.22v.06l-4.47,25.25v10.95l6.69,3.9,10.68,6.15,16.05,9.31,21.82,12.6,48.63,28.05,4,2.31h9.01l12.8,2.25-3.9-2.25-54.2-31.31-20.21-11.66-19.65-11.38-23.4-13.47h0l-.08-.06c-.74-.42-1.42-.94-2-1.56-2.32-2.38-3.23-5.79-2.4-9.01,.21-.8,.52-1.58,.91-2.31ZM360.32,112.25l-17.85-3.14,25.4,14.65,.1-.57c.91-5.13-2.51-10.03-7.64-10.94h0Zm-47.88,275.89c5.09-.16,9.12-4.34,9.11-9.43v-6.31l-.86,1.48-8.26,14.26Zm-7.88,13.67l4.53,.8c2.12,.38,4.3,0,6.18-1.04l2.6-4.46h-10.57l-2.74,4.7ZM230.39,89.33l-2.33,4-19.35,33.6-5.18,8.98-.26,.38-6.53,11.37-9.92,17.09h0l-6.06,10.45h0l-1.24,2.15-6.53,11.35-.06,.06h0l-6.02,10.44h0l-2.4,4.21-5.6,9.67h0l-.98,1.68-3.3,5.74-5.18,9-6.56,11.35-8.5,14.75-5.88,10.14h0l-.34,.58v.05l-13.37,23.22v.06l-4.47,25.25v10.95l6.69,3.9,10.68,6.15,16.05,9.31,21.82,12.6,48.63,28.05,4,2.31h9.01l12.8,2.25-3.9-2.25-54.2-31.31-20.21-11.66-19.65-11.38-23.4-13.47h0l-.08-.06c-.74-.42-1.42-.94-2-1.56-2.32-2.38-3.23-5.79-2.4-9.01,.23-.8,.55-1.57,.96-2.3l8.4-14.55v-.06l2.93-5.02h0l3.2-5.6h0l8.8-15.2,6.51-11.39,5.26-9.09,3.25-5.64h0l.25-.44,.95-1.67h0l5.34-9.23,2.62-4.56,5.92-10.18,.14-.28,6.4-11.07,1.48-2.52,2.85-4.96,3.16-5.49h0l1.05-1.76,6.56-11.35,.24-.45h0l4.76-8.24,1.22-2.22h0l10.87-18.8,4.94-8.6,1.6-2.77,4.42-7.69,20.37-35.21,1.32-2.31,3.84-6.67-3.87,6.67-9.52-1.75Zm215.36,69.05l-67.71-39.13h0l-32.42-18.69h0l-14.93-8.62-13.15-7.58-55.76-32.18c-4.13-2.37-9.39-.95-11.76,3.18,0,0,0,.01-.01,.02l-14.83,25.72-1.9,3.26-2.89,4.97-2.33,4-19.35,33.6-5.18,8.98-.26,.38-6.53,11.37-9.92,17.08h0l-6.06,10.45h0l-1.24,2.15-6.53,11.35-.06,.06h0l-6.02,10.44h0l-2.4,4.21-5.6,9.67h0l-.98,1.68-3.3,5.74-5.18,9-6.56,11.35-8.5,14.75-5.88,10.14h0l-.34,.58v.05l-13.37,23.22v.06l-4.47,7.71-8,13.9c-2.38,4.11-.98,9.38,3.14,11.76,.02,.01,.04,.02,.06,.04l3.1,1.78h0l1.73,.98,6.69,3.9,10.68,6.15,16.03,9.34,21.82,12.6,48.63,28.05,4,2.31,15.46,8.94,3.2,1.87,52.46,30.28c4.15,2.37,9.43,.94,11.81-3.2l8.26-14.3,5.86-10.21,2.6-4.46,2.56-4.38v-.06l8.8-15.24,1.51-2.63,3.1-5.44,115.01-199.23c2.38-4.09,1-9.34-3.08-11.74Zm-9.69,15.66l-97.52,168.92-7.77,13.51-5.6,9.77v.06l-3.6,6.11-.86,1.48-8.28,14.26-5.16,8.97-2.72,4.7-4.8,8.26-1.72,2.98c-2.61,4.45-8.31,5.99-12.8,3.45l-22.45-12.95h0l-11.09-6.4h0l-11.55-6.69h0l-3.9-2.25-54.2-31.31-20.34-11.7-19.65-11.38-23.4-13.47h0l-.08-.06c-.74-.42-1.42-.94-2-1.56-2.32-2.38-3.23-5.79-2.4-9.01,.23-.8,.55-1.57,.96-2.3l8.4-14.55v-.06l2.93-5.02h0l3.2-5.6h0l8.8-15.2,6.51-11.39,5.26-9.09,3.25-5.64h0l.25-.44,.95-1.67h0l5.34-9.23,2.62-4.56,5.92-10.18,.14-.28,6.4-11.07,1.48-2.52,2.85-4.96,3.16-5.49h0l1.05-1.76,6.56-11.35,.24-.45h0l4.76-8.24,1.22-2.22h0l10.87-18.8,4.94-8.6,1.6-2.77,4.42-7.69,20.37-35.21,1.32-2.31,3.84-6.67,.93-1.6,8.32-14.4c2.6-4.5,8.36-6.04,12.87-3.44,0,0,.01,0,.02,0l33.72,19.39,20.18,11.64,10.99,6.34,11.69,6.76,25.4,14.65h0l8.43,4.89,56.28,32.52c4.5,2.6,6.04,8.35,3.46,12.86ZM115.09,307.41l8.4-14.55v-.06l2.93-5.02h0l3.2-5.6h0l8.8-15.2,6.56-11.38,5.26-9.09,3.25-5.64h0l.25-.44,.95-1.67h0l5.34-9.23,2.62-4.56,5.92-10.18,.14-.28,6.4-11.07,1.48-2.52,2.85-4.96,3.16-5.49h0l1.05-1.76,6.56-11.35,.24-.45h0l4.76-8.24,1.22-2.22h0l10.87-18.8,4.94-8.6,1.6-2.77,4.42-7.69,20.37-35.21,1.32-2.31,3.84-6.67-3.87,6.67-9.6-1.7-2.33,4-19.35,33.6-5.18,8.98-.26,.38-6.53,11.37-9.84,17.04h0l-6.06,10.45h0l-1.24,2.15-6.53,11.35-.06,.06h0l-6.02,10.44h0l-2.4,4.21-5.6,9.67h0l-.98,1.68-3.3,5.74-5.18,9-6.56,11.35-8.5,14.75-5.88,10.14h0l-.34,.58v.05l-13.37,23.22v.06l-4.47,25.25v10.95l6.69,3.9,10.68,6.15,16.05,9.31,21.82,12.6,48.63,28.05,4,2.31h9.01l12.8,2.25-3.9-2.25-54.2-31.31-20.21-11.66-19.65-11.38-23.4-13.47h0l-.08-.06c-.74-.42-1.42-.94-2-1.56-2.32-2.38-3.23-5.79-2.4-9.01,.21-.8,.52-1.58,.91-2.31Zm192.21,89.71l-2.72,4.7,4.53,.8c2.12,.38,4.3,0,6.18-1.04l2.6-4.46h-10.59Zm13.42-23.26l-8.28,14.28c5.09-.16,9.12-4.34,9.11-9.43v-6.31l-.83,1.46Zm39.6-261.64l-17.85-3.14,25.4,14.65,.1-.57c.9-5.12-2.53-10.01-7.65-10.91v-.02ZM115.09,307.41l8.4-14.55v-.06l2.93-5.02h0l3.2-5.6h0l8.8-15.2,6.56-11.38,5.26-9.09,3.25-5.64h0l.25-.44,.95-1.67h0l5.34-9.23,2.62-4.56,5.92-10.18,.14-.28,6.4-11.07,1.48-2.52,2.85-4.96,3.16-5.49h0l1.05-1.76,6.56-11.35,.24-.45h0l4.76-8.24,1.22-2.22h0l10.87-18.8,4.94-8.6,1.6-2.77,4.42-7.69,20.37-35.21,1.32-2.31,3.84-6.67-3.87,6.67-9.6-1.7-2.33,4-19.35,33.6-5.18,8.98-.26,.38-6.53,11.37-9.84,17.04h0l-6.06,10.45h0l-1.24,2.15-6.53,11.35-.06,.06h0l-6.02,10.44h0l-2.4,4.21-5.6,9.67h0l-.98,1.68-3.3,5.74-5.18,9-6.56,11.35-8.5,14.75-5.88,10.14h0l-.34,.58v.05l-13.37,23.22v.06l-4.47,25.25v10.95l6.69,3.9,10.68,6.15,16.05,9.31,21.82,12.6,48.63,28.05,4,2.31h9.01l12.8,2.25-3.9-2.25-54.2-31.31-20.21-11.66-19.65-11.38-23.4-13.47h0l-.08-.06c-.74-.42-1.42-.94-2-1.56-2.32-2.38-3.23-5.79-2.4-9.01,.21-.8,.52-1.58,.91-2.31Zm192.21,89.71l-2.72,4.7,4.53,.8c2.12,.38,4.3,0,6.18-1.04l2.6-4.46h-10.59Zm13.42-23.26l-8.28,14.28c5.09-.16,9.12-4.34,9.11-9.43v-6.31l-.83,1.46Zm39.6-261.64l-17.85-3.14,25.4,14.65,.1-.57c.9-5.12-2.53-10.01-7.65-10.91v-.02ZM115.09,307.41l8.4-14.55v-.06l2.93-5.02h0l3.2-5.6h0l8.8-15.2,6.56-11.38,5.26-9.09,3.25-5.64h0l.25-.44,.95-1.67h0l5.34-9.23,2.62-4.56,5.92-10.18,.14-.28,6.4-11.07,1.48-2.52,2.85-4.96,3.16-5.49h0l1.05-1.76,6.56-11.35,.24-.45h0l4.76-8.24,1.22-2.22h0l10.87-18.8,4.94-8.6,1.6-2.77,4.42-7.69,20.37-35.21,1.32-2.31,3.84-6.67-3.87,6.67-9.6-1.7-2.33,4-19.35,33.6-5.18,8.98-.26,.38-6.53,11.37-9.84,17.04h0l-6.06,10.45h0l-1.24,2.15-6.53,11.35-.06,.06h0l-6.02,10.44h0l-2.4,4.21-5.6,9.67h0l-.98,1.68-3.3,5.74-5.18,9-6.56,11.35-8.5,14.75-5.88,10.14h0l-.34,.58v.05l-13.37,23.22v.06l-4.47,25.25v10.95l6.69,3.9,10.68,6.15,16.05,9.31,21.82,12.6,48.63,28.05,4,2.31h9.01l12.8,2.25-3.9-2.25-54.2-31.31-20.21-11.66-19.65-11.38-23.4-13.47h0l-.08-.06c-.74-.42-1.42-.94-2-1.56-2.32-2.38-3.23-5.79-2.4-9.01,.21-.8,.52-1.58,.91-2.31Zm192.21,89.71l-2.72,4.7,4.53,.8c2.12,.38,4.3,0,6.18-1.04l2.6-4.46h-10.59Zm13.42-23.26l-8.28,14.28c5.09-.16,9.12-4.34,9.11-9.43v-6.31l-.83,1.46Zm39.6-261.64l-17.85-3.14,25.4,14.65,.1-.57c.9-5.12-2.53-10.01-7.65-10.91v-.02ZM115.09,307.41l8.4-14.55v-.06l2.93-5.02h0l3.2-5.6h0l8.8-15.2,6.56-11.38,5.26-9.09,3.25-5.64h0l.25-.44,.95-1.67h0l5.34-9.23,2.62-4.56,5.92-10.18,.14-.28,6.4-11.07,1.48-2.52,2.85-4.96,3.16-5.49h0l1.05-1.76,6.56-11.35,.24-.45h0l4.76-8.24,1.22-2.22h0l10.87-18.8,4.94-8.6,1.6-2.77,4.42-7.69,20.37-35.21,1.32-2.31,3.84-6.67-3.87,6.67-9.6-1.7-2.33,4-19.35,33.6-5.18,8.98-.26,.38-6.53,11.37-9.84,17.04h0l-6.06,10.45h0l-1.24,2.15-6.53,11.35-.06,.06h0l-6.02,10.44h0l-2.4,4.21-5.6,9.67h0l-.98,1.68-3.3,5.74-5.18,9-6.56,11.35-8.5,14.75-5.88,10.14h0l-.34,.58v.05l-13.37,23.22v.06l-4.47,25.25v10.95l6.69,3.9,10.68,6.15,16.05,9.31,21.82,12.6,48.63,28.05,4,2.31h9.01l12.8,2.25-3.9-2.25-54.2-31.31-20.21-11.66-19.65-11.38-23.4-13.47h0l-.08-.06c-.74-.42-1.42-.94-2-1.56-2.32-2.38-3.23-5.79-2.4-9.01,.21-.8,.52-1.58,.91-2.31Zm192.21,89.71l-2.72,4.7,4.53,.8c2.12,.38,4.3,0,6.18-1.04l2.6-4.46h-10.59Zm13.42-23.26l-8.28,14.28c5.09-.16,9.12-4.34,9.11-9.43v-6.31l-.83,1.46Zm39.6-261.64l-17.85-3.14,25.4,14.65,.1-.57c.9-5.12-2.53-10.01-7.65-10.91v-.02ZM115.09,307.41l8.4-14.55v-.06l2.93-5.02h0l3.2-5.6h0l8.8-15.2,6.56-11.38,5.26-9.09,3.25-5.64h0l.25-.44,.95-1.67h0l5.34-9.23,2.62-4.56,5.92-10.18,.14-.28,6.4-11.07,1.48-2.52,2.85-4.96,3.16-5.49h0l1.05-1.76,6.56-11.35,.24-.45h0l4.76-8.24,1.22-2.22h0l10.87-18.8,4.94-8.6,1.6-2.77,4.42-7.69,20.37-35.21,1.32-2.31,3.84-6.67-3.87,6.67-9.6-1.7-2.33,4-19.35,33.6-5.18,8.98-.26,.38-6.53,11.37-9.84,17.04h0l-6.06,10.45h0l-1.24,2.15-6.53,11.35-.06,.06h0l-6.02,10.44h0l-2.4,4.21-5.6,9.67h0l-.98,1.68-3.3,5.74-5.18,9-6.56,11.35-8.5,14.75-5.88,10.14h0l-.34,.58v.05l-13.37,23.22v.06l-4.47,25.25v10.95l6.69,3.9,10.68,6.15,16.05,9.31,21.82,12.6,48.63,28.05,4,2.31h9.01l12.8,2.25-3.9-2.25-54.2-31.31-20.21-11.66-19.65-11.38-23.4-13.47h0l-.08-.06c-.74-.42-1.42-.94-2-1.56-2.32-2.38-3.23-5.79-2.4-9.01,.21-.8,.52-1.58,.91-2.31Zm192.21,89.71l-2.72,4.7,4.53,.8c2.12,.38,4.3,0,6.18-1.04l2.6-4.46h-10.59Zm13.42-23.26l-8.28,14.28c5.09-.16,9.12-4.34,9.11-9.43v-6.31l-.83,1.46Zm39.6-261.64l-17.85-3.14,25.4,14.65,.1-.57c.9-5.12-2.53-10.01-7.65-10.91v-.02ZM115.09,307.41l8.4-14.55v-.06l2.93-5.02h0l3.2-5.6h0l8.8-15.2,6.56-11.38,5.26-9.09,3.25-5.64h0l.25-.44,.95-1.67h0l5.34-9.23,2.62-4.56,5.92-10.18,.14-.28,6.4-11.07,1.48-2.52,2.85-4.96,3.16-5.49h0l1.05-1.76,6.56-11.35,.24-.45h0l4.76-8.24,1.22-2.22h0l10.87-18.8,4.94-8.6,1.6-2.77,4.42-7.69,20.37-35.21,1.32-2.31,3.84-6.67-3.87,6.67-9.6-1.7-2.33,4-19.35,33.6-5.18,8.98-.26,.38-6.53,11.37-9.84,17.04h0l-6.06,10.45h0l-1.24,2.15-6.53,11.35-.06,.06h0l-6.02,10.44h0l-2.4,4.21-5.6,9.67h0l-.98,1.68-3.3,5.74-5.18,9-6.56,11.35-8.5,14.75-5.88,10.14h0l-.34,.58v.05l-13.37,23.22v.06l-4.47,25.25v10.95l6.69,3.9,10.68,6.15,16.05,9.31,21.82,12.6,48.63,28.05,4,2.31h9.01l12.8,2.25-3.9-2.25-54.2-31.31-20.21-11.66-19.65-11.38-23.4-13.47h0l-.08-.06c-.74-.42-1.42-.94-2-1.56-2.32-2.38-3.23-5.79-2.4-9.01,.21-.8,.52-1.58,.91-2.31Zm192.21,89.71l-2.72,4.7,4.53,.8c2.12,.38,4.3,0,6.18-1.04l2.6-4.46h-10.59Zm13.42-23.26l-8.28,14.28c5.09-.16,9.12-4.34,9.11-9.43v-6.31l-.83,1.46Zm39.6-261.64l-17.85-3.14,25.4,14.65,.1-.57c.9-5.12-2.53-10.01-7.65-10.91v-.02ZM115.09,307.41l8.4-14.55v-.06l2.93-5.02h0l3.2-5.6h0l8.8-15.2,6.56-11.38,5.26-9.09,3.25-5.64h0l.25-.44,.95-1.67h0l5.34-9.23,2.62-4.56,5.92-10.18,.14-.28,6.4-11.07,1.48-2.52,2.85-4.96,3.16-5.49h0l1.05-1.76,6.56-11.35,.24-.45h0l4.76-8.24,1.22-2.22h0l10.87-18.8,4.94-8.6,1.6-2.77,4.42-7.69,20.37-35.21,1.32-2.31,3.84-6.67-3.87,6.67-9.6-1.7-2.33,4-19.35,33.6-5.18,8.98-.26,.38-6.53,11.37-9.84,17.04h0l-6.06,10.45h0l-1.24,2.15-6.53,11.35-.06,.06h0l-6.02,10.44h0l-2.4,4.21-5.6,9.67h0l-.98,1.68-3.3,5.74-5.18,9-6.56,11.35-8.5,14.75-5.88,10.14h0l-.34,.58v.05l-13.37,23.22v.06l-4.47,25.25v10.95l6.69,3.9,10.68,6.15,16.05,9.31,21.82,12.6,48.63,28.05,4,2.31h9.01l12.8,2.25-3.9-2.25-54.2-31.31-20.21-11.66-19.65-11.38-23.4-13.47h0l-.08-.06c-.74-.42-1.42-.94-2-1.56-2.32-2.38-3.23-5.79-2.4-9.01,.21-.8,.52-1.58,.91-2.31Zm192.21,89.71l-2.72,4.7,4.53,.8c2.12,.38,4.3,0,6.18-1.04l2.6-4.46h-10.59Zm13.42-23.26l-8.28,14.28c5.09-.16,9.12-4.34,9.11-9.43v-6.31l-.83,1.46Zm39.6-261.64l-17.85-3.14,25.4,14.65,.1-.57c.9-5.12-2.53-10.01-7.65-10.91v-.02ZM115.09,307.41l8.4-14.55v-.06l2.93-5.02h0l3.2-5.6h0l8.8-15.2,6.56-11.38,5.26-9.09,3.25-5.64h0l.25-.44,.95-1.67h0l5.34-9.23,2.62-4.56,5.92-10.18,.14-.28,6.4-11.07,1.48-2.52,2.85-4.96,3.16-5.49h0l1.05-1.76,6.56-11.35,.24-.45h0l4.76-8.24,1.22-2.22h0l10.87-18.8,4.94-8.6,1.6-2.77,4.42-7.69,20.37-35.21,1.32-2.31,3.84-6.67-3.87,6.67-9.6-1.7-2.33,4-19.35,33.6-5.18,8.98-.26,.38-6.53,11.37-9.84,17.04h0l-6.06,10.45h0l-1.24,2.15-6.53,11.35-.06,.06h0l-6.02,10.44h0l-2.4,4.21-5.6,9.67h0l-.98,1.68-3.3,5.74-5.18,9-6.56,11.35-8.5,14.75-5.88,10.14h0l-.34,.58v.05l-13.37,23.22v.06l-4.47,25.25v10.95l6.69,3.9,10.68,6.15,16.05,9.31,21.82,12.6,48.63,28.05,4,2.31h9.01l12.8,2.25-3.9-2.25-54.2-31.31-20.21-11.66-19.65-11.38-23.4-13.47h0l-.08-.06c-.74-.42-1.42-.94-2-1.56-2.32-2.38-3.23-5.79-2.4-9.01,.21-.8,.52-1.58,.91-2.31Zm192.21,89.71l-2.72,4.7,4.53,.8c2.12,.38,4.3,0,6.18-1.04l2.6-4.46h-10.59Zm13.42-23.26l-8.28,14.28c5.09-.16,9.12-4.34,9.11-9.43v-6.31l-.83,1.46Zm39.6-261.64l-17.85-3.14,25.4,14.65,.1-.57c.9-5.12-2.53-10.01-7.65-10.91v-.02ZM115.09,307.41l8.4-14.55v-.06l2.93-5.02h0l3.2-5.6h0l8.8-15.2,6.56-11.38,5.26-9.09,3.25-5.64h0l.25-.44,.95-1.67h0l5.34-9.23,2.62-4.56,5.92-10.18,.14-.28,6.4-11.07,1.48-2.52,2.85-4.96,3.16-5.49h0l1.05-1.76,6.56-11.35,.24-.45h0l4.76-8.24,1.22-2.22h0l10.87-18.8,4.94-8.6,1.6-2.77,4.42-7.69,20.37-35.21,1.32-2.31,3.84-6.67-3.87,6.67-9.6-1.7-2.33,4-19.35,33.6-5.18,8.98-.26,.38-6.53,11.37-9.84,17.04h0l-6.06,10.45h0l-1.24,2.15-6.53,11.35-.06,.06h0l-6.02,10.44h0l-2.4,4.21-5.6,9.67h0l-.98,1.68-3.3,5.74-5.18,9-6.56,11.35-8.5,14.75-5.88,10.14h0l-.34,.58v.05l-13.37,23.22v.06l-4.47,25.25v10.95l6.69,3.9,10.68,6.15,16.05,9.31,21.82,12.6,48.63,28.05,4,2.31h9.01l12.8,2.25-3.9-2.25-54.2-31.31-20.21-11.66-19.65-11.38-23.4-13.47h0l-.08-.06c-.74-.42-1.42-.94-2-1.56-2.32-2.38-3.23-5.79-2.4-9.01,.21-.8,.52-1.58,.91-2.31Zm192.21,89.71l-2.72,4.7,4.53,.8c2.12,.38,4.3,0,6.18-1.04l2.6-4.46h-10.59Zm13.42-23.26l-8.28,14.28c5.09-.16,9.12-4.34,9.11-9.43v-6.31l-.83,1.46Zm39.6-261.64l-17.85-3.14,25.4,14.65,.1-.57c.9-5.12-2.53-10.01-7.65-10.91v-.02ZM115.09,307.41l8.4-14.55v-.06l2.93-5.02h0l3.2-5.6h0l8.8-15.2,6.56-11.38,5.26-9.09,3.25-5.64h0l.25-.44,.95-1.67h0l5.34-9.23,2.62-4.56,5.92-10.18,.14-.28,6.4-11.07,1.48-2.52,2.85-4.96,3.16-5.49h0l1.05-1.76,6.56-11.35,.24-.45h0l4.76-8.24,1.22-2.22h0l10.87-18.8,4.94-8.6,1.6-2.77,4.42-7.69,20.37-35.21,1.32-2.31,3.84-6.67-3.87,6.67-9.6-1.7-2.33,4-19.35,33.6-5.18,8.98-.26,.38-6.53,11.37-9.84,17.04h0l-6.06,10.45h0l-1.24,2.15-6.53,11.35-.06,.06h0l-6.02,10.44h0l-2.4,4.21-5.6,9.67h0l-.98,1.68-3.3,5.74-5.18,9-6.56,11.35-8.5,14.75-5.88,10.14h0l-.34,.58v.05l-13.37,23.22v.06l-4.47,25.25v10.95l6.69,3.9,10.68,6.15,16.05,9.31,21.82,12.6,48.63,28.05,4,2.31h9.01l12.8,2.25-3.9-2.25-54.2-31.31-20.21-11.66-19.65-11.38-23.4-13.47h0l-.08-.06c-.74-.42-1.42-.94-2-1.56-2.32-2.38-3.23-5.79-2.4-9.01,.21-.8,.52-1.58,.91-2.31Zm192.21,89.71l-2.72,4.7,4.53,.8c2.12,.38,4.3,0,6.18-1.04l2.6-4.46h-10.59Zm13.42-23.26l-8.28,14.28c5.09-.16,9.12-4.34,9.11-9.43v-6.31l-.83,1.46Zm39.6-261.64l-17.85-3.14,25.4,14.65,.1-.57c.9-5.12-2.53-10.01-7.65-10.91v-.02ZM115.09,307.41l8.4-14.55v-.06l2.93-5.02h0l3.2-5.6h0l8.8-15.2,6.56-11.38,5.26-9.09,3.25-5.64h0l.25-.44,.95-1.67h0l5.34-9.23,2.62-4.56,5.92-10.18,.14-.28,6.4-11.07,1.48-2.52,2.85-4.96,3.16-5.49h0l1.05-1.76,6.56-11.35,.24-.45h0l4.76-8.24,1.22-2.22h0l10.87-18.8,4.94-8.6,1.6-2.77,4.42-7.69,20.37-35.21,1.32-2.31,3.84-6.67-3.87,6.67-9.6-1.7-2.33,4-19.35,33.6-5.18,8.98-.26,.38-6.53,11.37-9.84,17.04h0l-6.06,10.45h0l-1.24,2.15-6.53,11.35-.06,.06h0l-6.02,10.44h0l-2.4,4.21-5.6,9.67h0l-.98,1.68-3.3,5.74-5.18,9-6.56,11.35-8.5,14.75-5.88,10.14h0l-.34,.58v.05l-13.37,23.22v.06l-4.47,25.25v10.95l6.69,3.9,10.68,6.15,16.05,9.31,21.82,12.6,48.63,28.05,4,2.31h9.01l12.8,2.25-3.9-2.25-54.2-31.31-20.21-11.66-19.65-11.38-23.4-13.47h0l-.08-.06c-.74-.42-1.42-.94-2-1.56-2.32-2.38-3.23-5.79-2.4-9.01,.21-.8,.52-1.58,.91-2.31Zm192.21,89.71l-2.72,4.7,4.53,.8c2.12,.38,4.3,0,6.18-1.04l2.6-4.46h-10.59Zm13.42-23.26l-8.28,14.28c5.09-.16,9.12-4.34,9.11-9.43v-6.31l-.83,1.46Zm39.6-261.64l-17.85-3.14,25.4,14.65,.1-.57c.9-5.12-2.53-10.01-7.65-10.91v-.02ZM115.09,307.41l8.4-14.55v-.06l2.93-5.02h0l3.2-5.6h0l8.8-15.2,6.56-11.38,5.26-9.09,3.25-5.64h0l.25-.44,.95-1.67h0l5.34-9.23,2.62-4.56,5.92-10.18,.14-.28,6.4-11.07,1.48-2.52,2.85-4.96,3.16-5.49h0l1.05-1.76,6.56-11.35,.24-.45h0l4.76-8.24,1.22-2.22h0l10.87-18.8,4.94-8.6,1.6-2.77,4.42-7.69,20.37-35.21,1.32-2.31,3.84-6.67-3.87,6.67-9.6-1.7-2.33,4-19.35,33.6-5.18,8.98-.26,.38-6.53,11.37-9.84,17.04h0l-6.06,10.45h0l-1.24,2.15-6.53,11.35-.06,.06h0l-6.02,10.44h0l-2.4,4.21-5.6,9.67h0l-.98,1.68-3.3,5.74-5.18,9-6.56,11.35-8.5,14.75-5.88,10.14h0l-.34,.58v.05l-13.37,23.22v.06l-4.47,25.25v10.95l6.69,3.9,10.68,6.15,16.05,9.31,21.82,12.6,48.63,28.05,4,2.31h9.01l12.8,2.25-3.9-2.25-54.2-31.31-20.21-11.66-19.65-11.38-23.4-13.47h0l-.08-.06c-.74-.42-1.42-.94-2-1.56-2.32-2.38-3.23-5.79-2.4-9.01,.21-.8,.52-1.58,.91-2.31Zm192.21,89.71l-2.72,4.7,4.53,.8c2.12,.38,4.3,0,6.18-1.04l2.6-4.46h-10.59Zm13.42-23.26l-8.28,14.28c5.09-.16,9.12-4.34,9.11-9.43v-6.31l-.83,1.46Zm39.6-261.64l-17.85-3.14,25.4,14.65,.1-.57c.9-5.12-2.53-10.01-7.65-10.91v-.02ZM115.09,307.41l8.4-14.55v-.06l2.93-5.02h0l3.2-5.6h0l8.8-15.2,6.56-11.38,5.26-9.09,3.25-5.64h0l.25-.44,.95-1.67h0l5.34-9.23,2.62-4.56,5.92-10.18,.14-.28,6.4-11.07,1.48-2.52,2.85-4.96,3.16-5.49h0l1.05-1.76,6.56-11.35,.24-.45h0l4.76-8.24,1.22-2.22h0l10.87-18.8,4.94-8.6,1.6-2.77,4.42-7.69,20.37-35.21,1.32-2.31,3.84-6.67-3.87,6.67-9.6-1.7-2.33,4-19.35,33.6-5.18,8.98-.26,.38-6.53,11.37-9.84,17.04h0l-6.06,10.45h0l-1.24,2.15-6.53,11.35-.06,.06h0l-6.02,10.44h0l-2.4,4.21-5.6,9.67h0l-.98,1.68-3.3,5.74-5.18,9-6.56,11.35-8.5,14.75-5.88,10.14h0l-.34,.58v.05l-13.37,23.22v.06l-4.47,25.25v10.95l6.69,3.9,10.68,6.15,16.05,9.31,21.82,12.6,48.63,28.05,4,2.31h9.01l12.8,2.25-3.9-2.25-54.2-31.31-20.21-11.66-19.65-11.38-23.4-13.47h0l-.08-.06c-.74-.42-1.42-.94-2-1.56-2.32-2.38-3.23-5.79-2.4-9.01,.21-.8,.52-1.58,.91-2.31Zm192.21,89.71l-2.72,4.7,4.53,.8c2.12,.38,4.3,0,6.18-1.04l2.6-4.46h-10.59Zm13.42-23.26l-8.28,14.28c5.09-.16,9.12-4.34,9.11-9.43v-6.31l-.83,1.46Zm39.6-261.64l-17.85-3.14,25.4,14.65,.1-.57c.9-5.12-2.53-10.01-7.65-10.91v-.02ZM115.09,307.41l8.4-14.55v-.06l2.93-5.02h0l3.2-5.6h0l8.8-15.2,6.56-11.38,5.26-9.09,3.25-5.64h0l.25-.44,.95-1.67h0l5.34-9.23,2.62-4.56,5.92-10.18,.14-.28,6.4-11.07,1.48-2.52,2.85-4.96,3.16-5.49h0l1.05-1.76,6.56-11.35,.24-.45h0l4.76-8.24,1.22-2.22h0l10.87-18.8,4.94-8.6,1.6-2.77,4.42-7.69,20.37-35.21,1.32-2.31,3.84-6.67-3.87,6.67-9.6-1.7-2.33,4-19.35,33.6-5.18,8.98-.26,.38-6.53,11.37-9.84,17.04h0l-6.06,10.45h0l-1.24,2.15-6.53,11.35-.06,.06h0l-6.02,10.44h0l-2.4,4.21-5.6,9.67h0l-.98,1.68-3.3,5.74-5.18,9-6.56,11.35-8.5,14.75-5.88,10.14h0l-.34,.58v.05l-13.37,23.22v.06l-4.47,25.25v10.95l6.69,3.9,10.68,6.15,16.05,9.31,21.82,12.6,48.63,28.05,4,2.31h9.01l12.8,2.25-3.9-2.25-54.2-31.31-20.21-11.66-19.65-11.38-23.4-13.47h0l-.08-.06c-.74-.42-1.42-.94-2-1.56-2.32-2.38-3.23-5.79-2.4-9.01,.21-.8,.52-1.58,.91-2.31Zm192.21,89.71l-2.72,4.7,4.53,.8c2.12,.38,4.3,0,6.18-1.04l2.6-4.46h-10.59Zm13.42-23.26l-8.28,14.28c5.09-.16,9.12-4.34,9.11-9.43v-6.31l-.83,1.46Zm39.6-261.64l-17.85-3.14,25.4,14.65,.1-.57c.9-5.12-2.53-10.01-7.65-10.91v-.02ZM115.09,307.41l8.4-14.55v-.06l2.93-5.02h0l3.2-5.6h0l8.8-15.2,6.56-11.38,5.26-9.09,3.25-5.64h0l.25-.44,.95-1.67h0l5.34-9.23,2.62-4.56,5.92-10.18,.14-.28,6.4-11.07,1.48-2.52,2.85-4.96,3.16-5.49h0l1.05-1.76,6.56-11.35,.24-.45h0l4.76-8.24,1.22-2.22h0l10.87-18.8,4.94-8.6,1.6-2.77,4.42-7.69,20.37-35.21,1.32-2.31,3.84-6.67-3.87,6.67-9.6-1.7-2.33,4-19.35,33.6-5.18,8.98-.26,.38-6.53,11.37-9.84,17.04h0l-6.06,10.45h0l-1.24,2.15-6.53,11.35-.06,.06h0l-6.02,10.44h0l-2.4,4.21-5.6,9.67h0l-.98,1.68-3.3,5.74-5.18,9-6.56,11.35-8.5,14.75-5.88,10.14h0l-.34,.58v.05l-13.37,23.22v.06l-4.47,25.25v10.95l6.69,3.9,10.68,6.15,16.05,9.31,21.82,12.6,48.63,28.05,4,2.31h9.01l12.8,2.25-3.9-2.25-54.2-31.31-20.21-11.66-19.65-11.38-23.4-13.47h0l-.08-.06c-.74-.42-1.42-.94-2-1.56-2.32-2.38-3.23-5.79-2.4-9.01,.21-.8,.52-1.58,.91-2.31Zm192.21,89.71l-2.72,4.7,4.53,.8c2.12,.38,4.3,0,6.18-1.04l2.6-4.46h-10.59Zm13.42-23.26l-8.28,14.28c5.09-.16,9.12-4.34,9.11-9.43v-6.31l-.83,1.46Zm39.6-261.64l-17.85-3.14,25.4,14.65,.1-.57c.9-5.12-2.53-10.01-7.65-10.91v-.02ZM115.09,307.41l8.4-14.55v-.06l2.93-5.02h0l3.2-5.6h0l8.8-15.2,6.56-11.38,5.26-9.09,3.25-5.64h0l.25-.44,.95-1.67h0l5.34-9.23,2.62-4.56,5.92-10.18,.14-.28,6.4-11.07,1.48-2.52,2.85-4.96,3.16-5.49h0l1.05-1.76,6.56-11.35,.24-.45h0l4.76-8.24,1.22-2.22h0l10.87-18.8,4.94-8.6,1.6-2.77,4.42-7.69,20.37-35.21,1.32-2.31,3.84-6.67-3.87,6.67-9.6-1.7-2.33,4-19.35,33.6-5.18,8.98-.26,.38-6.53,11.37-9.84,17.04h0l-6.06,10.45h0l-1.24,2.15-6.53,11.35-.06,.06h0l-6.02,10.44h0l-2.4,4.21-5.6,9.67h0l-.98,1.68-3.3,5.74-5.18,9-6.56,11.35-8.5,14.75-5.88,10.14h0l-.34,.58v.05l-13.37,23.22v.06l-4.47,25.25v10.95l6.69,3.9,10.68,6.15,16.05,9.31,21.82,12.6,48.63,28.05,4,2.31h9.01l12.8,2.25-3.9-2.25-54.2-31.31-20.21-11.66-19.65-11.38-23.4-13.47h0l-.08-.06c-.74-.42-1.42-.94-2-1.56-2.32-2.38-3.23-5.79-2.4-9.01,.21-.8,.52-1.58,.91-2.31Zm192.21,89.71l-2.72,4.7,4.53,.8c2.12,.38,4.3,0,6.18-1.04l2.6-4.46h-10.59Zm13.42-23.26l-8.28,14.28c5.09-.16,9.12-4.34,9.11-9.43v-6.31l-.83,1.46Zm39.6-261.64l-17.85-3.14,25.4,14.65,.1-.57c.9-5.12-2.53-10.01-7.65-10.91v-.02ZM115.09,307.41l8.4-14.55v-.06l2.93-5.02h0l3.2-5.6h0l8.8-15.2,6.56-11.38,5.26-9.09,3.25-5.64h0l.25-.44,.95-1.67h0l5.34-9.23,2.62-4.56,5.92-10.18,.14-.28,6.4-11.07,1.48-2.52,2.85-4.96,3.16-5.49h0l1.05-1.76,6.56-11.35,.24-.45h0l4.76-8.24,1.22-2.22h0l10.87-18.8,4.94-8.6,1.6-2.77,4.42-7.69,20.37-35.21,1.32-2.31,3.84-6.67-3.87,6.67-9.6-1.7-2.33,4-19.35,33.6-5.18,8.98-.26,.38-6.53,11.37-9.84,17.04h0l-6.06,10.45h0l-1.24,2.15-6.53,11.35-.06,.06h0l-6.02,10.44h0l-2.4,4.21-5.6,9.67h0l-.98,1.68-3.3,5.74-5.18,9-6.56,11.35-8.5,14.75-5.88,10.14h0l-.34,.58v.05l-13.37,23.22v.06l-4.47,25.25v10.95l6.69,3.9,10.68,6.15,16.05,9.31,21.82,12.6,48.63,28.05,4,2.31h9.01l12.8,2.25-3.9-2.25-54.2-31.31-20.21-11.66-19.65-11.38-23.4-13.47h0l-.08-.06c-.74-.42-1.42-.94-2-1.56-2.32-2.38-3.23-5.79-2.4-9.01,.21-.8,.52-1.58,.91-2.31Zm192.21,89.71l-2.72,4.7,4.53,.8c2.12,.38,4.3,0,6.18-1.04l2.6-4.46h-10.59Zm13.42-23.26l-8.28,14.28c5.09-.16,9.12-4.34,9.11-9.43v-6.31l-.83,1.46Zm39.6-261.64l-17.85-3.14,25.4,14.65,.1-.57c.9-5.12-2.53-10.01-7.65-10.91v-.02ZM115.09,307.41l8.4-14.55v-.06l2.93-5.02h0l3.2-5.6h0l8.8-15.2,6.56-11.38,5.26-9.09,3.25-5.64h0l.25-.44,.95-1.67h0l5.34-9.23,2.62-4.56,5.92-10.18,.14-.28,6.4-11.07,1.48-2.52,2.85-4.96,3.16-5.49h0l1.05-1.76,6.56-11.35,.24-.45h0l4.76-8.24,1.22-2.22h0l10.87-18.8,4.94-8.6,1.6-2.77,4.42-7.69,20.37-35.21,1.32-2.31,3.84-6.67-3.87,6.67-9.6-1.7-2.33,4-19.35,33.6-5.18,8.98-.26,.38-6.53,11.37-9.84,17.04h0l-6.06,10.45h0l-1.24,2.15-6.53,11.35-.06,.06h0l-6.02,10.44h0l-2.4,4.21-5.6,9.67h0l-.98,1.68-3.3,5.74-5.18,9-6.56,11.35-8.5,14.75-5.88,10.14h0l-.34,.58v.05l-13.37,23.22v.06l-4.47,25.25v10.95l6.69,3.9,10.68,6.15,16.05,9.31,21.82,12.6,48.63,28.05,4,2.31h9.01l12.8,2.25-3.9-2.25-54.2-31.31-20.21-11.66-19.65-11.38-23.4-13.47h0l-.08-.06c-.74-.42-1.42-.94-2-1.56-2.32-2.38-3.23-5.79-2.4-9.01,.21-.8,.52-1.58,.91-2.31Zm192.21,89.71l-2.72,4.7,4.53,.8c2.12,.38,4.3,0,6.18-1.04l2.6-4.46h-10.59Zm13.42-23.26l-8.28,14.28c5.09-.16,9.12-4.34,9.11-9.43v-6.31l-.83,1.46Zm39.6-261.64l-17.85-3.14,25.4,14.65,.1-.57c.9-5.12-2.53-10.01-7.65-10.91v-.02Z"/><path class="cls-2" d="M392.22,227.43c-1.46,2.68-4.81,3.67-7.49,2.21-.01,0-.02-.01-.03-.02l-17.55-10.13-8.46-4.88-19.91-11.48-9.19-5.3-11.45-6.62-16.11-9.31-12.68-7.31h0l-6.95-4-43.33-25.01c-1.66-.99-2.67-2.79-2.66-4.72,0-2.19,1.24-4.2,3.2-5.19h0c.76-.42,1.62-.64,2.5-.63,.9,0,1.79,.24,2.58,.69l2.03,1.18h0l6.83,4,51.5,29.73,8.32,4.8,8.65,4.94h0l7.52,4.34,9.19,5.33,7.09,4.09,14.91,8.59,8.5,4.86,21.11,12.19c2.62,1.57,3.48,4.96,1.91,7.58-.02,.03-.03,.05-.05,.08Z"/><path class="cls-2" d="M262.42,176.06h-.91c-4.95,.13-9.87,.81-14.67,2-.85,.19-1.67,.39-2.5,.63l-1.3-.74h0l-12.8-7.39-4.21-2.45c-1.83-1.04-2.86-3.07-2.64-5.16,.07-.88,.34-1.72,.8-2.47,1-1.78,2.87-2.88,4.91-2.9,.92,.01,1.81,.26,2.61,.71l15.27,8.8h0l5.95,3.46,9.49,5.5Z"/><path class="cls-2" d="M379.18,249.99c-1.46,2.68-4.81,3.67-7.49,2.21-.01,0-.02-.01-.03-.02l-9.31-5.38-8.48-4.82-15.07-8.71-5.9-3.4h0c-.22-.8-.44-1.65-.69-2.47-1.44-5.01-3.44-9.85-5.98-14.4l3.38,1.94,9.19,5.3,.96,.58h0l16.19,9.33,8.51,4.78,12.88,7.44c2.61,1.59,3.43,4.99,1.85,7.6Z"/><path class="cls-2" d="M206.87,204.23c-2.32,3-4.36,6.2-6.12,9.55l-.8-.47c-.77-.44-1.41-1.07-1.86-1.84-.64-1.04-.91-2.27-.74-3.48,.06-.82,.32-1.61,.74-2.31,1-1.78,2.87-2.89,4.91-2.9,.92,0,1.83,.25,2.63,.71l1.24,.74Z"/><path class="cls-2" d="M353.12,295.18c-1.49,2.68-4.86,3.66-7.55,2.2l-1.34-.8-5.44-3.16-9.19-5.3-5.27-3.05c2.04-3.2,3.79-6.57,5.24-10.07h0l9.23,5.39,7.53,4.36,4.91,2.83c2.59,1.6,3.43,4.97,1.9,7.59Z"/><path class="cls-2" d="M195.15,227.54l-.17,.58c-1.04,3.67-1.78,7.41-2.19,11.2l-5.69-3.26-.22-.14c-.76-.44-1.39-1.06-1.84-1.82-1.1-1.78-1.1-4.03,0-5.82,1-1.77,2.88-2.87,4.91-2.88,.92,0,1.83,.23,2.63,.68l2.56,1.46Z"/><path class="cls-2" d="M340.08,317.78c-1.54,2.61-4.85,3.57-7.55,2.2l-2.94-1.7-4.97-2.86-5.41-3.13h0l-6.12-3.51-6.89-4c2.65-1.96,5.17-4.09,7.52-6.4,.36-.36,.71-.71,1.05-1.07,.14-.14,.28-.29,.41-.44l14.41,8.34,8.59,4.98c.21,.12,.41,.26,.6,.41,2.15,1.75,2.7,4.8,1.3,7.19Z"/><path class="cls-2" d="M227.43,185.98c-3.33,1.93-6.49,4.16-9.44,6.64-.25,.19-.5,.42-.72,.61l-4.3-2.5c-1.33-.77-2.26-2.07-2.55-3.57-.28-1.39-.04-2.84,.68-4.06,.24-.44,.55-.83,.91-1.18,1.04-1.1,2.49-1.72,4-1.73,.92,0,1.83,.25,2.63,.71l1.76,1.02,7.03,4.06Z"/><path class="cls-2" d="M366.13,272.62c-1.47,2.68-4.84,3.66-7.52,2.19l-1.1-.63-8.46-4.88-10.27-5.93-4.94-2.83c.08-.3,.14-.63,.19-.94,.19-1.15,.38-2.33,.52-3.51,.34-2.63,.52-5.28,.55-7.93l3.67,2.11,12.35,7.14,8.46,4.89,4.67,2.69c2.62,1.57,3.47,4.96,1.9,7.57-.01,.02-.02,.04-.04,.06Z"/><path class="cls-2" d="M196.61,271.6l-18.59-10.7-1.29-.74-2.91-1.67c-2.62-1.59-3.46-5.01-1.87-7.63,0,0,0,0,0,0,.48-.82,1.14-1.52,1.94-2.03,.89-.57,1.92-.88,2.97-.88,.92,0,1.83,.25,2.63,.71l.28,.17,13.12,7.55h0c.08,.63,.16,1.26,.27,1.9,.47,3.25,1.19,6.46,2.14,9.6,.36,1.27,.79,2.51,1.29,3.73Z"/><path class="cls-2" d="M327.04,340.41c-1.25,2.25-3.86,3.36-6.34,2.7-.42-.12-.83-.28-1.21-.5l-8.65-5.03-.8-.44-17.49-10.1-16.22-9.36c1.29-.25,2.52-.5,3.78-.8h0c3.19-.76,6.33-1.75,9.39-2.94,.61-.22,1.18-.46,1.78-.71h0l14.09,8.15,19.68,11.36c2.66,1.57,3.55,5,1.98,7.67Z"/><path class="cls-2" d="M314.04,362.97c-1.49,2.68-4.86,3.66-7.55,2.2l-42.69-24.65-3.68-2.12-19.69-11.36-5.41-3.13-20.11-11.59-17.15-9.91h0l-2.5-1.42-25.51-14.75-.8-.47-8.13-4.69c-2.13-1.27-3.15-3.82-2.47-6.21,.14-.5,.35-.98,.61-1.42,1-1.78,2.87-2.89,4.91-2.91,.93,0,1.84,.25,2.64,.71l6.28,3.62,19.69,11.37,9.17,5.3,12.65,7.31h0c1.37,1.34,2.8,2.61,4.28,3.82h.08c.08,0,0,0,.06,.08,5.9,4.86,12.57,8.7,19.74,11.36h.08c1.76,.69,3.54,1.29,5.38,1.81h.1l19.06,11.01,4.55,2.63,15.19,8.85,13.67,7.88h0l15.56,9c2.66,1.57,3.55,5,1.98,7.67,0,0,0,.01-.01,.02Z"/><path class="cls-2" d="M384.78,175.68c-1.57,2.71-5.03,3.65-7.75,2.09l-2.28-1.32-8.48-4.86-27.48-15.87-9.19-5.3-7.08-4.1-18.95-10.92-15.79-9.14c-2.72-1.59-3.63-5.09-2.03-7.81,1.02-1.74,2.88-2.81,4.89-2.82,1,.01,1.97,.29,2.82,.8l36.13,20.87,9.19,5.32,29.6,17.07,8.46,4.89,5.85,3.38c2.69,1.56,3.62,5.01,2.08,7.71Z"/></svg>