<?xml version="1.0" encoding="UTF-8"?><svg id="Layer_1" xmlns="http://www.w3.org/2000/svg" viewBox="0 0 500 500"><defs><style>.cls-1{fill:#0f6788;}.cls-2{fill:none;}</style></defs><rect class="cls-2" x="50" y="50" width="400" height="400"/><g><g><path class="cls-1" d="M244.3,182.12c-2.55,0-4.88-1.06-6.58-2.76-7.43-7.01-14.86-14.23-22.3-21.23-7.43-7.22-15.08-14.44-22.51-21.66-2.76-2.55-3.61-6.16-2.12-9.77,1.49-3.61,5.1-6.16,8.92-6.16,2.34,0,4.46,.85,6.37,2.76,12.95,12.1,26.12,24.84,37.8,36.31,27.82-31,57.54-63.92,87.06-97.04,2.34-2.55,4.88-2.97,6.58-2.97,3.61,0,7.01,2.34,8.49,5.73,1.49,3.4,.85,7.22-1.7,9.98-22.72,25.27-45.44,50.54-67.53,75.17l-21.66,23.99c-.64,.85-1.49,1.7-2.12,2.55-.64,.85-1.49,1.49-2.12,2.34-1.7,1.7-4.03,2.76-6.58,2.76Z"/><path class="cls-1" d="M320.95,135.19v69.86c0,10.4-8.49,18.9-18.9,18.9H172.1c-10.4,0-18.9-8.49-18.9-18.9V75.1c0-10.4,8.49-18.9,18.9-18.9h129.95c1.27,0,2.55,.21,3.61,.42l-14.65,15.93h-118.91c-1.49,0-2.55,1.06-2.55,2.55V205.05c0,1.49,1.06,2.55,2.55,2.55h129.95c1.49,0,2.55-1.06,2.55-2.55v-52.24l16.35-17.62Z"/></g><path class="cls-1" d="M302.35,276.01H171.85c-10.26,0-18.64,8.39-18.64,18.64v130.51c0,10.26,8.39,18.64,18.64,18.64h130.51c10.23,0,18.62-8.39,18.62-18.64v-130.51c0-10.26-8.39-18.64-18.62-18.64Zm1.34,146.13c0,2.34-1.91,4.25-4.25,4.25h-124.71c-2.34,0-4.25-1.91-4.25-4.25v-124.48c0-2.36,1.91-4.25,4.25-4.25h124.71c2.34,0,4.25,1.89,4.25,4.25v124.48Z"/></g></svg>