<?xml version="1.0" encoding="UTF-8"?><svg id="Layer_1" xmlns="http://www.w3.org/2000/svg" viewBox="0 0 500 500"><defs><style>.cls-1{fill:#0f6788;}.cls-2{fill:none;}</style></defs><rect class="cls-2" x="50.12" y="65.51" width="400" height="400"/><g><path class="cls-1" d="M424.86,152.48h-107.85v-25.2c0-7.9-6.43-14.33-14.33-14.33h-105.13c-7.9,0-14.33,6.43-14.33,14.33v25.2H78.41c-10.64,0-19.29,8.65-19.29,19.29v227c0,10.64,8.65,19.29,19.29,19.29H421.83c10.64,0,19.29-8.65,19.29-19.29V168.74c0-8.96-7.29-16.26-16.26-16.26Zm-227.31-26.55h105.13c.74,0,1.35,.61,1.35,1.35v25.2h-107.83v-25.2c0-.75,.61-1.35,1.35-1.35Zm-125.45,45.85c0-3.48,2.83-6.31,6.31-6.31H424.86c1.8,0,3.27,1.47,3.27,3.27v230.04c0,3.48-2.83,6.31-6.31,6.31H78.41c-3.48,0-6.31-2.83-6.31-6.31V171.77Z"/><path class="cls-1" d="M358.25,222.17h0c-.06-.77-.43-1.48-1.02-1.97-.59-.49-1.37-.72-2.13-.62l-43.42,5.29c-.84,.1-1.58,.57-2.04,1.28-.45,.72-.56,1.59-.29,2.4l1.74,5.21c.42,1.27,1.73,2.09,3.01,1.9l25.93-3.23c-10.58,12.97-46.91,57.52-53.59,65.68-11.75-5.6-83.58-39.81-90.33-43-1.19-.57-2.6-.23-3.42,.82l-84.39,108.82c-.46,.6-.66,1.33-.57,2.08,.09,.74,.47,1.41,1.07,1.87l4.38,3.4c.5,.38,1.09,.59,1.72,.59,.88,0,1.69-.4,2.22-1.09l80.23-103.45c10.84,4.98,76.43,36.29,89.77,42.65l.45,.21c1.16,.55,2.54,.24,3.36-.75,4.42-5.38,48.73-59.72,57.73-70.75l2,26.58c.11,1.46,1.34,2.6,2.8,2.6h5.16c.78,0,1.53-.33,2.06-.9,.53-.57,.8-1.34,.74-2.12l-3.18-43.52Z"/></g></svg>