<?xml version="1.0" encoding="UTF-8"?><svg id="Layer_1" xmlns="http://www.w3.org/2000/svg" viewBox="0 0 500 500"><defs><style>.cls-1{fill:#0f6788;}</style></defs><path class="cls-1" d="M435.4,284.46l-71.71,37.37v-12.09l77.78-40.46c3.21-1.68,4.45-5.64,2.78-8.85-1.65-3.19-5.58-4.44-8.78-2.79-.03,.01-.05,.03-.08,.04l-71.71,37.37v-12.93l77.78-40.51c3.2-1.68,4.44-5.63,2.76-8.84-1.68-3.2-5.63-4.44-8.84-2.76l-71.71,37.32v-12.18l76.51-39.76c3.21-1.69,4.44-5.65,2.75-8.86-.64-1.22-1.65-2.21-2.89-2.82l-119.08-58.87c-1.81-.95-3.98-.95-5.79,0L58.69,270.16c-2.26,1.12-3.68,3.42-3.67,5.93-.01,2.51,1.41,4.8,3.67,5.89l128.25,62.29c1.84,.94,4.03,.9,5.84-.09l82.76-43.11v12.18l-85.88,44.71-125.28-60.82c-3.25-1.57-7.16-.2-8.72,3.05-1.57,3.25-.2,7.16,3.05,8.72h0l128.25,62.29c.88,.43,1.85,.66,2.83,.66,1.05,0,2.08-.26,3.01-.75l82.76-43.11v12.88l-85.88,44.71-125.28-60.82c-3.32-1.46-7.19,.05-8.64,3.37-1.39,3.16-.09,6.86,2.97,8.45l128.25,62.24c.88,.45,1.84,.69,2.83,.7,1.06,0,2.09-.28,3.01-.8l82.76-43.07v11.99l-85.88,44.71-125.28-60.77c-3.25-1.57-7.16-.2-8.72,3.05-1.57,3.25-.2,7.16,3.05,8.72l128.25,62.24c.87,.47,1.84,.71,2.83,.7,1.06,0,2.09-.28,3.01-.8l92.35-47.99,156.36-81.4c3.15-1.81,4.24-5.82,2.43-8.97-1.7-2.97-5.41-4.14-8.51-2.68h-.05Zm-153.39-1.56l-109.43-53.83,62.12-30.36,107.53,52.84-60.21,31.34Zm35.92-124.92l104.62,51.72-66.01,34.35-107-52.69,68.38-33.39Zm-128.25,173.05l-113.16-54.98,81.2-39.66,109.82,54.06-77.86,40.58Zm115.27-45.28s.12,0,.17-.08l45.47-23.64v66.57l-61.93,32.28v-66.58l16.29-8.54Z"/><path class="cls-1" d="M172.19,161.35c52.86,0,92.79-18.86,92.79-43.83s-39.88-43.82-92.79-43.82-92.83,18.85-92.83,43.82,39.93,43.83,92.83,43.83Zm0-74.55c46.97,0,79.64,16.21,79.64,30.72s-32.71,30.73-79.64,30.73-79.64-16.21-79.64-30.73,32.67-30.72,79.64-30.72h0Z"/><path class="cls-1" d="M263.39,155.68c1.62-3.24,.3-7.18-2.95-8.79-3.24-1.62-7.18-.3-8.79,2.95-.08,.16-.15,.33-.22,.49-4.51,10.01-36.07,20.85-79.23,20.85s-74.73-10.84-79.29-20.89c-1.39-3.34-5.23-4.93-8.57-3.54-3.34,1.39-4.93,5.23-3.54,8.57,.05,.12,.11,.25,.17,.37,8.9,19.66,53.51,28.64,91.24,28.64s82.39-8.98,91.19-28.64Z"/><path class="cls-1" d="M178.74,202.53c.02-3.6-2.89-6.54-6.5-6.56h0c-43.16,0-74.73-10.93-79.29-20.94-1.55-3.26-5.41-4.7-8.71-3.23-3.3,1.5-4.76,5.38-3.28,8.68,8.9,19.64,53.51,28.64,91.24,28.64,3.62-.02,6.55-2.96,6.54-6.59Z"/><path class="cls-1" d="M131.42,227.62c3.61,.04,6.57-2.86,6.61-6.47,.03-3.29-2.38-6.1-5.64-6.55-27.48-4.11-38.02-11.1-39.71-14.16-1.91-3.08-5.96-4.02-9.03-2.11-2.82,1.75-3.89,5.35-2.48,8.36,6.64,12.09,30.47,18.02,49.27,20.85,.33,.05,.65,.08,.98,.09Z"/><path class="cls-1" d="M92.29,224.08c-2.16-2.92-6.27-3.54-9.19-1.38-2.8,2.06-3.5,5.95-1.61,8.86,3.62,5.23,11.99,9.37,25.58,12.66,.51,.13,1.04,.18,1.56,.17,3.61,.04,6.58-2.86,6.62-6.47,.03-3.07-2.07-5.75-5.05-6.45-15.16-3.69-17.77-7.23-17.9-7.4Z"/><ellipse class="cls-1" cx="257.42" cy="239.86" rx="29.53" ry="11.34" transform="translate(-72.26 116.94) rotate(-22.53)"/></svg>