<?xml version="1.0" encoding="UTF-8"?><svg id="Layer_1" xmlns="http://www.w3.org/2000/svg" viewBox="0 0 500 500"><defs><style>.cls-1{fill:#0f6788;}.cls-2{fill:none;}</style></defs><rect class="cls-2" x="50" y="50" width="400" height="400"/><g><path class="cls-1" d="M433.22,106.31H66.78c-6.51,0-11.78,5.29-11.78,11.78v225.12c0,6.51,5.27,11.78,11.78,11.78H218.36l-11.85,14.77-.19,.25-8.73,10.87c-1.77,2.19-2.12,5.09-.93,7.56,1.56,3.26,5.5,5.25,10.29,5.25h83.88c4.6,0,8.51-1.91,10.13-4.97,1.26-2.36,1.1-5.09-.42-7.35l-7.93-11.73-.17-.26-9.71-14.39h150.5c6.48,0,11.78-5.27,11.78-11.78V118.09c0-6.49-5.3-11.78-11.78-11.78Zm-145.54,276.12h-76.93l10.22-12.74,10.82-13.46c.23-.05,.56-.12,.98-.12h36.29c.39,0,.67,.05,.89,.09l8.86,13.09,.09,.14,8.79,13.01Zm110.06-36.01c-1.05,1.05-2.49,1.68-4.06,1.68-3.17,0-5.74-2.56-5.74-5.74,0-1.59,.65-3.01,1.68-4.04,1.05-1.07,2.49-1.7,4.06-1.7s3.01,.63,4.06,1.7c1.03,1.03,1.68,2.45,1.68,4.04s-.65,3.03-1.68,4.06Zm21.93,0c-1.05,1.05-2.49,1.68-4.06,1.68-3.17,0-5.74-2.56-5.74-5.74,0-1.59,.65-3.01,1.68-4.04,1.05-1.07,2.49-1.7,4.06-1.7s3.01,.63,4.06,1.7c1.03,1.03,1.68,2.45,1.68,4.04s-.65,3.03-1.68,4.06Zm13.27-20.78c0,3.75-3.05,6.81-6.84,6.81H73.87c-3.76,0-6.84-3.06-6.84-6.81V124.39c0-3.76,3.08-6.83,6.84-6.83H426.1c3.8,0,6.84,3.06,6.84,6.83v201.26Z"/><path class="cls-1" d="M400.56,179.29l.05-.02-1.61-3.69-.14-.25h0c-2.05-4.32-4.69-8.39-7.86-12.12l.11-.04-3.12-3.27-.15-.14h0c-3.97-3.98-8.45-7.31-13.32-9.9l.29-.13-5.38-2.28-.12-.04h0c-6.67-2.7-13.72-4.07-20.95-4.07h-2.17v12.39c-25.13,.11-45.54,20.59-45.54,45.74s20.52,45.74,45.74,45.74,45.74-20.52,45.74-45.74v-.04h12.14v-2.17c0-6.86-1.24-13.58-3.7-19.97Zm-50.04-3.84v-15.44l18.76-7.9c5.2,2.32,9.98,5.5,14.21,9.46l-32.97,13.88Zm36.23-10.55c3.28,3.66,6.01,7.71,8.09,12.04l-44.32,18.66v-15.44s36.23-15.25,36.23-15.25Zm9.81,16.02c1.98,5.17,3.09,10.61,3.32,16.16h-41.71l38.39-16.16Zm-46.04-25.63v-7.57c4.37,.18,8.68,.91,12.83,2.17l-12.83,5.4Zm37.26,46.13v.05c0,22.83-18.57,41.4-41.4,41.4s-41.4-18.57-41.4-41.4,18.46-41.29,41.2-41.4v41.35h41.6Z"/><g><rect class="cls-1" x="353.17" y="248.27" width="7.55" height="103.92" rx="1.85" ry="1.85" transform="translate(657.18 -56.71) rotate(90)"/><rect class="cls-1" x="353.17" y="222.27" width="7.55" height="103.92" rx="1.85" ry="1.85" transform="translate(631.17 -82.71) rotate(90)"/></g><g><rect class="cls-1" x="256.71" y="151.71" width="7.55" height="155.96" rx="1.85" ry="1.85" transform="translate(520.97 459.37) rotate(180)"/><rect class="cls-1" x="201.2" y="205.75" width="7.55" height="101.91" rx="1.85" ry="1.85" transform="translate(409.95 513.42) rotate(180)"/><rect class="cls-1" x="117.94" y="239.08" width="7.55" height="67.48" rx="1.85" ry="1.85" transform="translate(243.43 545.65) rotate(180)"/><rect class="cls-1" x="173.45" y="218.52" width="7.55" height="89.14" rx="1.85" ry="1.85" transform="translate(354.45 526.18) rotate(180)"/><rect class="cls-1" x="228.95" y="184.16" width="7.55" height="123.5" rx="1.85" ry="1.85" transform="translate(465.46 491.82) rotate(-180)"/><rect class="cls-1" x="145.69" y="187.62" width="7.55" height="120.04" rx="1.85" ry="1.85" transform="translate(298.94 495.28) rotate(180)"/><rect class="cls-1" x="90.19" y="223.56" width="7.55" height="84.1" rx="1.85" ry="1.85" transform="translate(187.93 531.22) rotate(180)"/></g></g></svg>