<?xml version="1.0" encoding="UTF-8"?><svg id="Layer_1" xmlns="http://www.w3.org/2000/svg" viewBox="0 0 500 500"><defs><style>.cls-1{fill:#0f6788;}.cls-2{fill:none;}</style></defs><rect class="cls-2" x="50" y="50" width="400" height="400"/><g><g><g><path class="cls-1" d="M201.62,88.7l24.3,4.28h.02l8.25,1.47h.02l3.33-5.74h-35.93Zm-79.58,0c-4.09,0-7.42,3.33-7.42,7.42v122.2h7.92V104.54c0-4.47,3.64-8.11,8.13-8.11h33.54l1.04-5.91c.12-.64,.31-1.25,.54-1.82h-43.75Zm190.25,6.52c-.43-3.66-3.57-6.52-7.35-6.52h-19.41l17.37,10.02,9.45,5.46v-8.06c0-.31-.02-.61-.07-.9Z"/><g><path class="cls-1" d="M151.45,168.77l-1.7,9.76h-8.63c-2.6,0-4.68-2.17-4.68-4.89,0-1.35,.52-2.55,1.37-3.45,.85-.87,2.01-1.42,3.31-1.42h10.33Z"/><path class="cls-1" d="M169.91,177.42l6.29,1.11h-10.14c.85-.73,1.94-1.18,3.07-1.18,.26,0,.52,.02,.78,.07Z"/><path class="cls-1" d="M141.12,191.23h6.38l-1.73,9.76h-4.66c-1.23,0-2.34-.47-3.14-1.25-.95-.9-1.54-2.2-1.54-3.64,0-1.35,.52-2.55,1.37-3.45,.45-.47,.99-.85,1.61-1.09,.52-.21,1.09-.33,1.7-.33Z"/><path class="cls-1" d="M142.72,218.32l.8-4.63h-2.41c-1.3,0-2.46,.54-3.31,1.42-.8,.85-1.3,1.96-1.37,3.21h6.29Z"/></g></g><g><path class="cls-1" d="M230.06,85.89h-.02l-62.52-11.04c-4.04-.71-7.89,1.99-8.6,6.03l-1.37,7.82-1.37,7.73-12.76,72.35-1.73,9.76-2.29,13.02v.02l-1.44,8.13v.02l-3.26,18.58h8.01l.8-4.63,2.25-12.69,1.73-9.76,2.25-12.69,1.7-9.76,12.76-72.35,1.04-5.91c.12-.64,.31-1.25,.54-1.82,1.47-3.36,5.11-5.41,8.89-4.75l26.95,4.75h.02l24.3,4.28h.02l8.25,1.47,3.33-5.74,.78-1.37-8.25-1.44Zm117.54,20.73l-22.45-3.97h-.02l-12.76-2.25h-.02l-9.43-1.68,9.45,5.46,10.07,5.81,15.36,2.72c4.42,.78,7.37,4.99,6.59,9.41l-.09,.5,.02,.02,7.26,4.21,1.44-8.11v-.02l.62-3.52c.71-4.02-1.99-7.87-6.03-8.58Z"/><path class="cls-1" d="M196.72,159.38l-5.18,9.01-8.3-1.47-11.13-1.96c-2.55-.45-4.23-2.98-3.78-5.63,.43-2.39,2.43-4.07,4.68-4.07,.26,0,.52,.02,.78,.07l14.66,2.58,8.27,1.47Z"/><path class="cls-1" d="M184.78,180.06l-5.2,9.01-8.27-1.47-3.1-.54c-2.55-.45-4.23-2.95-3.76-5.63,.19-1.16,.78-2.15,1.58-2.88,.85-.73,1.94-1.18,3.07-1.18,.26,0,.52,.02,.78,.07l6.29,1.11,.33,.05,8.27,1.47Z"/><path class="cls-1" d="M174.19,201h-1.49l-5.06,8.77-3.33-.59c-1.75-.31-3.1-1.61-3.59-3.24-.26-.73-.31-1.56-.17-2.39,.17-.99,.62-1.89,1.28-2.55,.66-.76,1.56-1.25,2.55-1.44h.02c.26-.05,.52-.07,.8-.07s.54,.02,.8,.07l6.81,1.21,1.37,.24Z"/></g><g><path class="cls-1" d="M337.79,112.71l-15.36-2.72,21.86,12.62,.09-.5c.78-4.42-2.17-8.63-6.59-9.41Zm-103.6-18.27l-8.25-1.47-2.01,3.45-16.66,28.91-4.47,7.73-.21,.33-5.63,9.79-8.51,14.73-5.22,9.01-1.06,1.87-5.63,9.76-.05,.05-5.18,9.01-2.1,3.64-4.8,8.32h-.02l-.85,1.44-2.84,4.94-4.47,7.75-2.67,4.63h9.12l2.67-4.63,2.27-3.92,5.08-8.77,.12-.24,5.48-9.53,1.28-2.17,5.18-9.01,.9-1.51,5.65-9.76,.21-.4,5.2-9.01,9.36-16.19,4.25-7.4,1.39-2.39,3.81-6.62,17.54-30.35,1.13-1.99,3.31-5.74-3.33,5.74Zm177.16,57.98l-58.31-33.68h-.02v-.02l-27.87-16.07h-.02l-12.84-7.42-11.32-6.52-48.01-27.7c-3.55-2.06-8.08-.83-10.14,2.72l-12.76,22.17-1.63,2.81-2.48,4.28-2.01,3.45-16.66,28.91-4.47,7.73-.21,.33-5.63,9.79-8.51,14.73-5.22,9.01-1.06,1.87-5.63,9.76-.05,.05-5.18,9.01-2.1,3.64-4.8,8.32h-.02l-.85,1.44-2.84,4.94-4.47,7.75-2.67,4.63h9.12l2.67-4.63,2.27-3.92,5.08-8.77,.12-.24,5.48-9.53,1.28-2.17,5.18-9.01,.9-1.51,5.65-9.76,.21-.4,5.2-9.01,9.36-16.19,4.25-7.4,1.39-2.39,3.81-6.62,17.54-30.35,1.13-1.99,3.31-5.74,.8-1.37,7.16-12.39c2.22-3.88,7.21-5.2,11.09-2.95l28.95,16.71,17.37,10.02,9.45,5.46,10.07,5.81,21.86,12.62,.02,.02,7.26,4.21,48.45,27.96c3.9,2.25,5.2,7.21,2.98,11.09l-47.7,82.61h9.12l49.61-85.94c2.08-3.55,.85-8.08-2.69-10.14Zm-177.16-57.98l-8.25-1.47-2.01,3.45-16.66,28.91-4.47,7.73-.21,.33-5.63,9.79-8.51,14.73-5.22,9.01-1.06,1.87-5.63,9.76-.05,.05-5.18,9.01-2.1,3.64-4.8,8.32h-.02l-.85,1.44-2.84,4.94-4.47,7.75-2.67,4.63h9.12l2.67-4.63,2.27-3.92,5.08-8.77,.12-.24,5.48-9.53,1.28-2.17,5.18-9.01,.9-1.51,5.65-9.76,.21-.4,5.2-9.01,9.36-16.19,4.25-7.4,1.39-2.39,3.81-6.62,17.54-30.35,1.13-1.99,3.31-5.74-3.33,5.74Zm103.6,18.27l-15.36-2.72,21.86,12.62,.09-.5c.78-4.42-2.17-8.63-6.59-9.41Z"/><g><path class="cls-1" d="M290.26,162.91l-44.34-25.6-5.89-3.4h-.02l-1.75-1.02c-.71-.4-1.47-.59-2.22-.59s-1.49,.17-2.15,.54h-.02c-.83,.4-1.56,1.06-2.08,1.96-.47,.8-.69,1.65-.69,2.51,0,1.63,.83,3.21,2.29,4.07l37.3,21.53,5.98,3.45,.02,.02,10.92,6.29,13.87,8.01,9.86,5.7,7.92,4.56,17.14,9.88,7.28,4.21,15.1,8.72c2.22,1.3,5.13,.45,6.48-1.89,1.37-2.34,.64-5.27-1.61-6.57l-18.18-10.49-7.28-4.21-12.83-7.4-6.1-3.52-7.92-4.59-6.48-3.73-.02-.02-7.42-4.28-7.16-4.14Z"/><path class="cls-1" d="M354.03,231.31c-1.35,2.34-4.25,3.19-6.48,1.89l-8.01-4.63-7.3-4.21-12.98-7.49-7.92-4.59-17.68-10.19-.02-.02-12.03-6.95-12.65-7.3-.02-.02-4.23-2.43-22.01-12.69-5.86-3.4h-.02l-11.01-6.36-3.64-2.1c-1.61-.9-2.43-2.67-2.27-4.44,.05-.73,.26-1.44,.66-2.13,.92-1.61,2.58-2.51,4.23-2.51,.76,0,1.54,.21,2.25,.61l13.14,7.59h.02l5.13,2.98,16.9,9.76,2.72,1.56,19.29,11.13,12.62,7.3,.19,.09,14.3,8.27,7.92,4.56,.83,.5h.02l13.95,8.04,7.28,4.21,11.09,6.41c2.25,1.3,2.98,4.23,1.61,6.57Z"/><path class="cls-1" d="M303.78,248.51h-19.55l-6.15-3.55h-.02l-.02-.02-8.46-4.89-16.26-9.38-.66-.38-21.98-12.69-9.45-5.46-7.47-4.3-14.04-8.11c-.69-.4-1.23-.95-1.61-1.58-.54-.9-.78-1.94-.64-3,.05-.69,.26-1.35,.64-1.99,.92-1.61,2.58-2.51,4.23-2.51,.78,0,1.56,.21,2.27,.61l6.71,3.88,13.28,7.66,8.7,5.03,16.05,9.27,.87,.5,21.98,12.69,9.24,5.34,7.66,4.42,14.68,8.46Z"/><path class="cls-1" d="M205.33,217.59l1.28,.73h-19.15c-.21-.21-.4-.47-.57-.73-.92-1.44-.99-3.38-.02-5.01,.92-1.61,2.58-2.48,4.23-2.48,.78,0,1.56,.19,2.27,.59l11.96,6.9Z"/><path class="cls-1" d="M343.46,248.51h-14.35l-1.02-.59-8.84-5.11-7.92-4.56-25.46-14.7h-.02l-.02-.02-10.26-5.93-14.44-8.34-.02-.02h-.02l-2.43-1.39-21.98-12.69-7.68-4.44-9.22-5.32-8.84-5.11c-1.18-.69-1.94-1.82-2.2-3.07-.24-1.16-.05-2.39,.59-3.5,.21-.38,.47-.73,.78-1.02,.92-.97,2.2-1.49,3.45-1.49,.78,0,1.56,.21,2.27,.61l1.51,.87,15.06,8.7,6.93,3.99,16.9,9.76,.9,.52,21.08,12.17,11.01,6.36,5.29,3.07,16.83,9.71,2.58,1.49,.02,.02h.02l5.3,3.05,10.64,6.15,7.28,4.21,4.02,2.32c1.56,.87,2.39,2.58,2.27,4.3Z"/><path class="cls-1" d="M358.85,167.31c-1.35,2.34-4.35,3.14-6.67,1.8l-1.96-1.13-7.3-4.21-23.66-13.66-7.92-4.56-6.1-3.52-16.31-9.41-13.59-7.85c-2.34-1.37-3.12-4.35-1.77-6.69,.9-1.56,2.55-2.46,4.23-2.46,.83,0,1.65,.21,2.43,.66l31.11,17.96,7.92,4.59,25.48,14.7,7.28,4.21,5.03,2.91c2.34,1.35,3.14,4.33,1.8,6.67Z"/></g></g></g><path class="cls-1" d="M400.66,258.15c0-.69-.04-1.37-.16-2.04l-.04-.72h-.11c-1.23-5.49-6.16-9.59-12-9.59h-124.08c-.56,0-1.1-.13-1.57-.38l-50.84-26.79c-1.75-.94-3.74-1.43-5.73-1.43H97.26c-6.79,0-12.32,5.53-12.32,12.34v196.45c0,7.73,6.27,14,13.98,14H386.68c7.7,0,13.98-6.27,13.98-14v-166.12l-.02-.81c.02-.31,.02-.63,.02-.92Zm-8.96,6.2v161.64c0,2.78-2.26,5.04-5.02,5.04H98.92c-2.75,0-5.02-2.26-5.02-5.04v-161.64h1.32l-1.23-5.47c-.07-.27-.09-.49-.09-.74v-28.6c0-1.86,1.5-3.38,3.36-3.38h108.85c.54,0,1.08,.13,1.57,.4l50.82,26.79c1.77,.92,3.76,1.41,5.76,1.41h124.08c1.86,0,3.36,1.52,3.36,3.38,0,.25-.02,.47-.09,.74l-1.03,5.47h1.12Z"/></g></svg>