<?xml version="1.0" encoding="UTF-8"?><svg id="Layer_1" xmlns="http://www.w3.org/2000/svg" viewBox="0 0 500 500"><defs><style>.cls-1{fill:#0f6788;}</style></defs><path class="cls-1" d="M351.21,60.12H112.83c-5.34,0-9.68,4.33-9.68,9.68v48.37s0,10.48,0,10.48v254.28s0,18.5,0,18.5c.01,4.83,3.54,8.84,8.17,9.57,.5,.08,1,.12,1.52,.12h203.81s34.57,0,34.57,0c.67,0,1.36-.06,2.01-.2,.13-.04,.26-.06,.38-.1,.23-.05,.47-.12,.71-.21,3.83-1.28,6.59-4.92,6.58-9.18v-18.3s0-313.33,0-313.33c0-5.34-4.33-9.68-9.67-9.68Zm-.65,20.64V347.69s0,21.02,0,21.02v15.88s0,5.89,0,5.89c-.01,3.8-2,7.11-5.02,8.99-1.62,1.01-3.53,1.59-5.58,1.59H124.05c-5.85-.01-10.59-4.75-10.59-10.58V125.65s-.01-10.48-.01-10.48v-34.41c0-5.83,4.76-10.58,10.6-10.58h215.93c5.86,0,10.61,4.75,10.59,10.58Z"/><path class="cls-1" d="M280.34,125.45c0,2.72-1.46,4.91-3.64,5.37-.27,.06-.58,.09-.89,.09h-87.58c-2.66,0-4.55-2.48-4.54-5.55-.01-2.61,1.36-4.83,3.42-5.43,.35-.1,.73-.17,1.13-.16h85.24s2.32,.01,2.32,.01c2.67-.01,4.52,2.6,4.53,5.67Z"/><path class="cls-1" d="M318.66,106.3c0,3.07-3.33,5.47-8.11,5.47h-28.65s-10.74,0-10.74,0h-110.01s-7.62,0-7.62,0c-4.77,0-8.16-2.48-8.15-5.55,0-.11,0-.23,0-.34,.17-2.16,2-3.99,4.81-4.81,1-.29,2.12-.45,3.33-.45h9.93s36,0,36,0h68.46s10.74,0,10.74,0h31.9c4.79,0,8.12,2.61,8.11,5.69Z"/><g><path class="cls-1" d="M331,200.18h0c0,3.52-2.74,6.37-6.13,6.37H135.42c-3.38,0-6.13-2.85-6.13-6.37h0c0-3.52,2.74-6.37,6.13-6.37h189.45c3.38,0,6.13,2.85,6.13,6.37Z"/><path class="cls-1" d="M331,269.13h0c0,3.52-2.74,6.37-6.13,6.37H135.42c-3.38,0-6.13-2.85-6.13-6.37h0c0-3.52,2.74-6.37,6.13-6.37h189.45c3.38,0,6.13,2.85,6.13,6.37Z"/><path class="cls-1" d="M331,305.63h0c0,3.52-2.74,6.37-6.13,6.37H135.42c-3.38,0-6.13-2.85-6.13-6.37h0c0-3.52,2.74-6.37,6.13-6.37h189.45c3.38,0,6.13,2.85,6.13,6.37Z"/><path class="cls-1" d="M331,340.78h0c0,3.52-2.74,6.37-6.13,6.37H135.42c-3.38,0-6.13-2.85-6.13-6.37h0c0-3.52,2.74-6.37,6.13-6.37h189.45c3.38,0,6.13,2.85,6.13,6.37Z"/><path class="cls-1" d="M331,235.43h0c0,3.52-2.74,6.37-6.13,6.37H135.42c-3.38,0-6.13-2.85-6.13-6.37h0c0-3.52,2.74-6.37,6.13-6.37h189.45c3.38,0,6.13,2.85,6.13,6.37Z"/></g></svg>