<?xml version="1.0" encoding="UTF-8"?><svg id="Layer_1" xmlns="http://www.w3.org/2000/svg" viewBox="0 0 500 500"><defs><style>.cls-1,.cls-2{fill:#0f6788;}.cls-2{isolation:isolate;opacity:.19;}</style></defs><circle class="cls-2" cx="250" cy="250" r="167.19"/><path class="cls-1" d="M250,50c-110.46,0-200,89.54-200,200s89.54,200,200,200,200-89.54,200-200S360.46,50,250,50Zm0,385.49c-102.45,0-185.49-83.04-185.49-185.49S147.55,64.51,250,64.51s185.49,83.04,185.49,185.49-83.04,185.49-185.49,185.49Z"/><path class="cls-1" d="M228.35,329.32c-.14-5.27,1.99-10.34,5.85-13.94,5.29-4.99,10.62-7.49,16-7.49,11.87,.04,21.46,9.7,21.42,21.57,0,.01,0,.02,0,.03,.16,5.68-1.97,11.18-5.92,15.27-3.95,4.1-8.97,6.14-15.06,6.14-5.98,.16-11.76-2.17-15.95-6.44-4.1-3.97-6.4-9.44-6.34-15.15Zm26.82-39.1c-2.1,.2-5.89,.35-11.38,.45l-8.54-55.66c-3-21.75-4.99-37.56-5.99-47.44-.5-6.19-.75-10.78-.75-13.77,0-.7,.2-2.49,.6-5.38,.4-5.98,1.92-10.42,4.57-13.32,2.65-2.9,6.37-4.59,11.16-5.1,1.72-.44,3.47-.75,5.24-.9,5.28-.09,10.34,2.12,13.86,6.06,3.73,4.04,5.6,9.75,5.6,17.13,0,6.89-.8,18.46-2.4,34.72l-6.44,48.33c-1.21,11.72-3.05,23.37-5.52,34.89Z"/></svg>