<?xml version="1.0" encoding="UTF-8"?><svg id="Layer_1" xmlns="http://www.w3.org/2000/svg" viewBox="0 0 500 500"><defs><style>.cls-1{fill:#0f6788;}</style></defs><path class="cls-1" d="M433.2,274.54l-95.52-123.21c-3.04-3.92-8.03-5.58-12.74-4.21l-34.56,10.28c10.36-21.54,10.29-45.24-.23-66.78l-.1-.16c-12.79-25.03-38.97-41.2-66.73-41.2-11.49,0-23.05,2.76-33.46,7.98-17.59,9.08-30.75,24.49-37.04,43.4-6.28,18.76-4.91,39.46,3.75,56.8l17.51,34.59-90.79,27.04c-3.86,1.15-6.93,4.21-8.2,8.19-1.35,4.21-.56,8.78,2.12,12.22l13.53,17.49-12.68,3.76c-3.81,1.14-6.88,4.22-8.2,8.23-1.35,4.17-.56,8.74,2.12,12.22l13.53,17.49-12.64,3.76c-3.86,1.15-6.93,4.21-8.2,8.19-1.36,4.24-.58,8.8,2.08,12.22l95.52,123.21c2.29,3,5.73,4.72,9.41,4.72,1.06,0,2.14-.15,3.33-.47l241.64-71.94c3.86-1.15,6.93-4.21,8.2-8.19,1.36-4.24,.58-8.8-2.08-12.22l-13.57-17.53,12.67-3.76c3.86-1.15,6.93-4.21,8.2-8.19,1.35-4.21,.56-8.78-2.12-12.22l-13.53-17.49,12.68-3.76c3.81-1.14,6.88-4.22,8.2-8.23,1.35-4.17,.56-8.74-2.11-12.22Zm-256.29,123.05c-.05,0-.21-.11-.31-.24l-72.38-93.37-23.18-29.89c-.37-.48-.38-1.2-.25-1.64,.09-.21,.27-.64,.58-.73l16.94-5.04,18.4,23.74,6.58,8.46,49.44,63.8c2.3,2.97,5.73,4.68,9.41,4.68,1.21,0,2.3-.15,3.33-.47l217.16-64.61,16.28,20.97c.4,.54,.38,1.24,.23,1.72-.05,.2-.26,.62-.52,.7l-27.69,8.26-214.02,63.66Zm5.27-41.67c-.08,.03-.29-.12-.4-.26l-47.08-60.73-25.3-32.6-6.55-8.5-16.6-21.39c-.48-.61-.32-1.4-.23-1.72,.05-.18,.26-.6,.53-.69l92.81-27.59,35.75,70.67c1.92,3.75,5.62,5.08,8.21,5.08,3.68,0,6.44-1.84,7.73-5.11,.33-.63,7.85-15.28,17.36-33.83l5.98-11.66c6.97-13.55,14.47-28.17,20.95-40.8l7.83-15.25,45.08-13.4c.08,0,.25,.12,.32,.23l95.55,123.2c.39,.52,.39,1.21,.25,1.7-.09,.21-.27,.64-.58,.73l-58.17,17.32-183.45,54.62Zm95.5-194.49c-1.8,3.51-3.91,7.66-6.26,12.29-4.25,8.24-9.2,17.9-14.3,27.83-3.71,7.24-7.51,14.63-11.15,21.72-12.7,24.73-20.63,40.21-22.86,44.59l-34.93-68.96-23.14-45.72c-7.52-15.03-8.69-33.08-3.23-49.5,5.52-16.56,17.02-30.05,32.38-37.99,9.08-4.54,19.16-6.94,29.15-6.94,24.24,0,47.14,14.17,58.34,36.09,9.28,19,9.28,39.88,0,58.78-1.04,2-2.4,4.67-3.99,7.82ZM75.63,314.08s.14-.55,.52-.66l16.94-5.04,74.42,95.99c2.3,2.97,5.73,4.68,9.41,4.68,1.21,0,2.3-.15,3.33-.47l217.16-64.65,16.28,21.02h0c.5,.64,.3,1.44,.22,1.71-.05,.19-.25,.59-.52,.66l-241.66,71.95c-.15,.06-.33-.22-.37-.27l-95.53-123.22c-.4-.51-.41-1.18-.22-1.71Zm349.48-30.59h0Z"/><path class="cls-1" d="M265.22,139.99c5.9-15.75,2.41-33.28-9.11-45.75-16.68-18.06-44.94-19.19-63-2.51-12.45,11.5-17.32,28.7-12.7,44.91,1.91,6.79,5.34,12.9,10.18,18.15,7.39,8.01,17.86,13.51,30.32,15.92l1.24,.05c20.93-2.32,36.63-13.53,43.06-30.75Zm-43.36,22c-16.95-3.45-29-13.56-33.07-27.74-3.7-13.03,.23-26.86,10.24-36.11,14.53-13.41,37.25-12.5,50.67,2.02,9.24,10.01,12.07,24.11,7.36,36.79-5.15,13.82-17.98,22.95-35.2,25.04Z"/></svg>