<svg version="1.1" id="Layer_1" xmlns="http://www.w3.org/2000/svg" xmlns:xlink="http://www.w3.org/1999/xlink" x="0px" y="0px"
	 width="100%" viewBox="0 0 500 500" enable-background="new 0 0 500 500" xml:space="preserve">
<path fill="none" opacity="1.000000" stroke="#0F6788" stroke-linecap="round" stroke-linejoin="round" stroke-width="12.000000"
	d="
M290.500000,443.000000 
	C290.500000,407.166656 290.463959,371.333282 290.531158,335.500061 
	C290.544220,328.534027 289.466217,327.439636 282.499878,327.468384 
	C261.333588,327.555725 240.166504,327.547516 219.000107,327.470947 
	C212.689941,327.448120 211.461212,328.690338 211.471497,335.000061 
	C211.530212,370.999939 211.500000,407.000000 211.500000,443.000000 
"/>
<path fill="none" opacity="1.000000" stroke="#0F6788" stroke-linecap="round" stroke-linejoin="round" stroke-width="13.000000"
	d="
M139.500000,243.000000 
	C139.333328,244.833328 139.021729,246.666611 139.020996,248.500015 
	C138.995773,311.166656 139.006027,373.833344 138.977783,436.500000 
	C138.976669,438.986877 139.167862,441.402130 140.221924,444.222260 
	C152.107605,445.891174 164.330872,444.817627 176.500626,444.936615 
	C188.831146,445.057220 201.185089,444.175873 213.494827,444.637817 
	C225.839218,445.101013 238.168564,444.950897 250.499908,444.934113 
	C262.831604,444.917358 275.159546,445.136383 287.505737,444.644104 
	C299.812866,444.153381 312.167664,445.016327 324.499725,444.948761 
	C336.918549,444.880707 349.369263,445.671967 361.549286,444.399017 
	C363.083252,441.301453 363.010223,438.405701 363.009644,435.500000 
	C362.996979,373.333344 363.004669,311.166656 362.979004,249.000015 
	C362.978180,246.999939 362.666687,245.000000 362.500000,243.000000 
"/>
<path fill="none" opacity="1.000000" stroke="#0F6788" stroke-linecap="round" stroke-linejoin="round" stroke-width="13.000000"
	d="
M407.500000,245.500000 
	C405.895355,244.542603 404.105835,243.819763 402.443176,243.138733 
	C397.237427,241.006409 392.601959,236.920670 385.860260,240.213913 
	C382.496307,241.857162 377.666565,240.484207 373.500031,240.505096 
	C370.260864,240.521332 366.962189,240.120728 363.984070,241.974426 
	C363.428833,242.320068 362.515717,242.670013 362.022827,242.449051 
	C355.509155,239.528961 348.656158,241.100876 341.999817,241.086136 
	C277.333466,240.942825 212.664978,240.767761 148.001740,241.239471 
	C137.790619,241.313965 127.428696,241.253464 117.580032,239.912277 
	C109.319344,238.787369 103.485046,241.373138 96.996399,244.492508 
	C96.189339,244.880493 95.333336,245.166672 94.500000,245.500000 
"/>
<path fill="none" opacity="1.000000" stroke="#0F6788" stroke-linecap="round" stroke-linejoin="round" stroke-width="11.000000"
	d="
M392.000000,238.000000 
	C391.269836,235.031754 390.132202,232.461594 388.094391,229.924210 
	C344.136932,175.190536 300.336395,120.330894 256.495239,65.503792 
	C252.138077,60.054775 249.856918,60.050823 245.505753,65.504585 
	C215.328186,103.329224 185.204941,141.197266 154.982452,178.985962 
	C141.586380,195.735748 128.023651,212.352600 114.476234,228.980637 
	C112.274521,231.683029 110.428894,234.464447 110.000000,238.000000 
"/>
<path fill="none" opacity="1.000000" stroke="#0F6788" stroke-linecap="round" stroke-linejoin="round" stroke-width="3.000000"
	d="
M251.000000,51.500000 
	C251.000000,54.666668 251.000000,57.833332 251.000000,61.000000 
"/>
</svg>