<?xml version="1.0" encoding="UTF-8"?><svg id="Layer_1" xmlns="http://www.w3.org/2000/svg" viewBox="0 0 500 500"><defs><style>.cls-1{fill:#0f6788;}.cls-2{fill:none;}</style></defs><rect class="cls-2" x="50" y="50" width="400" height="400"/><path class="cls-1" d="M434.85,187.39l.17-.07-5.73-13.2-.1,.03c-8.22-17.52-18.89-33.94-31.81-48.93l.31-.12-10.85-11.36-.05,.02c-16.06-16.2-34.18-29.56-54.02-39.82l.87-.38-18.32-7.75h-.04c-25.81-10.5-53.12-15.83-81.17-15.83h-7.23v47.99h-.4c-97.05,0-176,78.95-176,176s78.95,176,176,176,176-78.96,176-176v-1.35h47.04v-7.23c0-26.84-4.93-53.07-14.67-78.02ZM241.33,64.58c18.57,.65,36.77,3.82,54.28,9.46l-54.28,22.86v-32.31Zm0,48l73.86-31.1c21.03,9.29,40.21,22.16,57.14,38.32l-131,55.15v-62.37Zm0,78.06l141.84-59.72c13.35,14.76,24.3,31.09,32.63,48.64l-174.46,73.46v-62.38h0Zm146.7,83.35c0,89.07-72.47,161.55-161.55,161.55s-161.55-72.47-161.55-161.55S137.41,112.45,226.48,112.45h.4v160.19h161.15v1.35h0Zm-121.7-15.81l155.18-65.34c8.13,20.92,12.64,42.85,13.43,65.34h-168.61Z"/></svg>