<?xml version="1.0" encoding="UTF-8"?><svg id="Layer_1" xmlns="http://www.w3.org/2000/svg" viewBox="0 0 500 500"><defs><style>.cls-1{fill:#0f6788;}.cls-2{fill:none;}</style></defs><rect class="cls-2" x="60" y="57" width="400" height="400"/><g><path class="cls-1" d="M110.73,91.44c0-.41,.04-.83,.14-1.24,.58-2.47,2.74-3.92,4.84-3.24l64.7,21.05c.68,.22,1.41,.22,2.09,0l39.49-12.85c.35-.11,.7-.17,1.05-.17,1.72,0,3.31,1.35,3.79,3.41,.58,2.47-.65,5.02-2.75,5.7l-42.62,13.87h-.01l-67.84-22.07c-1.74-.57-2.88-2.43-2.88-4.46Z"/><path class="cls-1" d="M346.34,428.38c-.48,2.06-2.07,3.41-3.79,3.41-.35,0-.7-.06-1.05-.17l-39.49-12.85c-.68-.22-1.41-.22-2.09,0l-64.7,21.05c-2.1,.68-4.27-.77-4.84-3.24-.1-.41-.14-.83-.14-1.24,0-2.03,1.14-3.89,2.88-4.46l67.84-22.07h.01l42.62,13.87c2.1,.68,3.33,3.23,2.75,5.7Z"/><path class="cls-1" d="M351.64,90.22c-9.68-18.97-29.05-30.2-48.8-30.2-8.13,0-16.65,1.93-24.39,5.8-12.78,6.59-22.46,17.82-27.11,31.76-4.65,13.94-3.49,29.04,2.71,41.44l45.7,90.23c.77,1.55,2.32,1.93,3.09,1.93s1.94,0,2.71-1.93c.39-.78,37.57-73.2,46.09-89.85,7.74-15.87,7.74-33.3,0-49.18Zm-25.66,47.92c-26.32,19.38-54.5,1.65-54.5-23.13,0-17.43,14.32-31.37,31.36-31.37,24.78,0,42.52,28.19,23.14,54.5Z"/><path class="cls-1" d="M427.12,128.32l-58.44-17.57v4.26c0,2.02,0,4.33-.26,6.42-.06,.55,.25,1.05,.78,1.22l47.86,14.95c.47,.15,.8,.59,.8,1.09v30.49c0,.28-.1,.54-.28,.75l-71.75,82.94c-.78,1.16-1.55,2.32-1.55,3.48v87.75c0,.7-.62,1.22-1.3,1.12-11.21-1.76-22.42-2.84-33.63-3.25-.61-.02-1.09-.51-1.09-1.12v-98.34c0-.76-.72-1.36-1.45-1.14-1.45,.44-2.9,.66-4.35,.66s-2.66-.22-3.99-.64c-.71-.23-1.44,.34-1.44,1.09v97.85c0,.66-.57,1.19-1.23,1.15-14.11-.95-24.92-5.19-32.07-13.1-1.16-1.16-1.94-2.32-3.1-3.87l-.38-.39c-7.36-11.23-6.59-24.39-6.59-24.39v-84.2c0-2.33-1.09-4.64-3.12-5.79-1.3-.73-2.63-.88-4.24-.24l-57.8,16.24c-.73,.21-1.45-.34-1.45-1.09v-86.74c0-.49,.33-.93,.8-1.08l47.52-14.97c.51-.16,.83-.64,.78-1.17-.26-3.06-.3-6.12-.3-9.18,0-.76-.74-1.31-1.47-1.08l-52.8,16.48c-.22,.06-.45,.06-.67,0L56.47,88.35c-.73-.22-1.47,.33-1.47,1.09V397.25c0,.5,.32,.94,.8,1.09l125.11,38.76c.22,.07,.45,.07,.67,0l119.76-37.36c.22-.06,.46-.06,.68,0l124.43,38.56c.73,.22,1.48-.32,1.48-1.09V129.41c0-.51-.33-.95-.81-1.09Zm-317.55-10.26c.02-.75,.75-1.28,1.47-1.06l65.14,20.22c.48,.15,.8,.59,.8,1.08v86.69c0,.77-.74,1.31-1.47,1.08l-40.74-12.7h-.38l-25.91-8.26c-.48-.16-.81-.61-.8-1.11l1.89-85.94Zm-41.79-12.73c0-.77,.75-1.32,1.48-1.09l28.3,8.96c.48,.15,.8,.6,.79,1.11l-1.88,85.93c-.02,.76-.75,1.29-1.48,1.06l-26.41-8.21c-.48-.15-.8-.59-.8-1.08V105.33Zm0,100.67c0-.76,.74-1.31,1.47-1.08l55,16.97c.65,.21,.98,.94,.7,1.56l-24.93,55.07c-.27,.59-.96,.84-1.54,.56l-30.06-14.67c-.39-.19-.64-.59-.64-1.02v-57.39Zm25.69,192.92l-24.9-7.94c-.47-.15-.79-.58-.79-1.08v-111.2c0-.84,.88-1.39,1.64-1.02l59,28.95c.53,.26,.77,.87,.57,1.42l-34.11,90.19c-.21,.57-.83,.87-1.41,.68Zm83.9,25.89h-.39l-70.48-21.72c-.63-.19-.96-.87-.73-1.49l35.97-94.9c1.17-2.71,0-5.81-2.71-6.97l-28.43-13.85c-.56-.27-.79-.93-.54-1.49l25.85-56.94c.24-.52,.82-.79,1.37-.62l39.29,12.24c.48,.14,.8,.58,.8,1.08v184.66Zm44.47-10.58l-32.15,10.11c-.73,.24-1.47-.31-1.47-1.08V239.4c0-.51,.33-.96,.82-1.09l52.72-14.85c.73-.21,1.45,.34,1.45,1.09v75.18c0,1.88-.73,12.52,4.19,23.77,.24,.56,.01,1.2-.54,1.46-2.46,1.19-5.19,3.02-7.91,5.75-13.46,13.45-18.9,41.41-16.33,82.36,.04,.52-.29,1.01-.78,1.16Zm75.58-24.34c0,.5-.32,.94-.8,1.09l-61.69,19.07c-.71,.22-1.44-.32-1.48-1.06-2.06-45.75,6.72-63.25,12.85-70.15,2.71-3.1,5.43-4.26,7.36-4.65,.78,.78,1.16,1.55,1.94,2.33,9.49,10.24,23.07,16.03,40.74,16.98,.6,.04,1.08,.52,1.08,1.12v35.27Zm58.48-130.4c0-.28,.09-.54,.27-.75l59.69-69.38c.69-.8,2-.31,2,.74v171.26c0,.74-.69,1.29-1.41,1.08-14.53-4.21-35.98-10.4-59.61-14.53-.54-.1-.94-.56-.94-1.11v-87.31Zm62.35,165.32h-.39l-108.41-33.83c-.47-.15-.8-.59-.8-1.09v-34.76c0-.65,.53-1.17,1.18-1.15,12.82,.44,26.33,1.97,39.48,4.22,27.41,4.57,52.94,11.76,68.15,16.41,.48,.15,.79,.59,.79,1.09v49.11Z"/><path class="cls-1" d="M445,176.95v165.44c0,.49-.39,.88-.87,.88h-7.28c-.48,0-.87-.39-.87-.88V176.95c0-.48,.39-.87,.87-.87h7.28c.48,0,.87,.39,.87,.87Z"/><rect class="cls-1" x="435.98" y="352.29" width="9.02" height="37.1" rx=".87" ry=".87"/><rect class="cls-1" x="435.98" y="397.46" width="9.02" height="18.61" rx=".87" ry=".87"/><g><path class="cls-1" d="M346.34,428.38c-.48,2.06-2.07,3.41-3.79,3.41-.35,0-.7-.06-1.05-.17l-39.49-12.85c-.68-.22-1.41-.22-2.09,0l-64.7,21.05c-2.1,.68-4.27-.77-4.84-3.24-.1-.41-.14-.83-.14-1.24,0-2.03,1.14-3.89,2.88-4.46l67.84-22.07h.01l42.62,13.87c2.1,.68,3.33,3.23,2.75,5.7Z"/><path class="cls-1" d="M224.08,104.1l-42.62,13.87h-.01l-67.84-22.07c-1.74-.57-2.88-2.43-2.88-4.46,0-.41,.04-.83,.14-1.24,.58-2.47,2.74-3.92,4.84-3.24l64.7,21.05c.68,.22,1.41,.22,2.09,0l39.49-12.85c.35-.11,.7-.17,1.05-.17,1.72,0,3.31,1.35,3.79,3.41,.58,2.47-.65,5.02-2.75,5.7Z"/><path class="cls-1" d="M445,176.95v165.44c0,.49-.39,.88-.87,.88h-7.28c-.48,0-.87-.39-.87-.88V176.95c0-.48,.39-.87,.87-.87h7.28c.48,0,.87,.39,.87,.87Z"/><rect class="cls-1" x="435.98" y="352.29" width="9.02" height="37.1" rx=".87" ry=".87"/><rect class="cls-1" x="435.98" y="397.46" width="9.02" height="18.61" rx=".87" ry=".87"/></g></g></svg>