<?xml version="1.0" encoding="UTF-8"?><svg id="Layer_1" xmlns="http://www.w3.org/2000/svg" viewBox="0 0 500 500"><defs><style>.cls-1{opacity:.3;}.cls-1,.cls-2,.cls-3,.cls-4,.cls-5{isolation:isolate;}.cls-1,.cls-2,.cls-3,.cls-4,.cls-5,.cls-6{fill:#0f6788;}.cls-2{opacity:.14;}.cls-3{opacity:.25;}.cls-4{opacity:.4;}.cls-5{opacity:.2;}</style></defs><path class="cls-6" d="M256.01,87.02c1.53-1.21,2.4-3.07,2.34-5.02l-.23-25.45c-.05-3.58-2.94-6.48-6.52-6.55-3.6,.5-6.85,3.2-6.64,7.07l.24,25.45c.03,3.6,2.93,6.52,6.53,6.58,1.57-.35,3.03-1.06,4.28-2.08Z"/><path class="cls-6" d="M226.76,99.5l.59-.5c2.48-2.5,2.48-6.53,0-9.02l-18.4-17.74c-2.68-2.31-6.72-2.01-9.03,.67-2.08,2.41-2.07,5.99,.03,8.38l17.86,17.69c2.74,2.7,6.29,2.74,8.94,.51Z"/><path class="cls-6" d="M294.28,71.5l-17.99,18.11c-2.48,2.5-2.48,6.53,0,9.02,2.39,2.38,6.22,2.47,8.73,.22l.59-.5,18-18.11c2.48-2.5,2.48-6.53,0-9.02-2.78-2.7-6.62-2.49-9.33,.28Z"/><path class="cls-6" d="M138,162.8h227.53l45.9,146.82h-105.84c-2.71,0-4.9,2.19-4.9,4.9,.35,27.03-21.29,49.22-48.31,49.57-27.03,.35-49.22-21.29-49.57-48.31,0-.42,0-.83,0-1.25,0-2.7-2.19-4.9-4.9-4.9H92.1l45.9-146.82Zm284.9,150.16l-48.9-156.62c-.68-2.04-2.6-3.4-4.75-3.35H134.29c-.3-.04-.6-.04-.9,0-1.81,.31-3.28,1.6-3.83,3.35l-48.94,156.62c-.13,.5-.18,1.01-.16,1.53v78.3c0,.14,0,.27,0,.41,0,.69,.04,1.38,.12,2.07,1.29,12.48,11.8,21.97,24.34,22H398.52c12.8-.03,23.42-9.89,24.4-22.65,.06-.61,.09-1.22,.08-1.83v-78.3c.05-.51,.01-1.03-.1-1.53Zm-9.65,79.83c.09,8.02-6.34,14.59-14.36,14.68-.11,0-.21,0-.32,0H104.97c-8.02,.08-14.6-6.35-14.68-14.37,0-.1,0-.2,0-.31v-73.4h103.66c2.3,26.52,21.78,48.25,47.45,52.89,3.42,.63,6.89,.94,10.36,.92,3.59,0,7.18-.33,10.71-1,25.5-4.8,44.8-26.45,47.1-52.84h103.69v73.43Z"/><polygon class="cls-1" points="139.22 164.26 364.46 214.38 364.46 164.26 139.22 164.26"/><polygon class="cls-5" points="138.18 214.38 364.46 214.38 138.68 164.26 138.18 214.38"/><polygon class="cls-4" points="409.59 307.89 365.58 165.14 365.36 214.38 409.59 307.89"/><polygon class="cls-4" points="94.99 306.83 137.44 166.78 136.72 214.38 94.99 306.83"/><path class="cls-2" d="M251.76,373.2c-3.48,0-6.94-.31-10.36-.95,4.5-.07,9.03-.09,13.6-.09,2.5,0,4.99,0,7.46,.04-3.53,.67-7.11,1-10.7,1Z"/><path class="cls-3" d="M440.88,411.08c0,21.49-85.46,38.92-190.87,38.92s-190.88-17.43-190.88-38.92c0-5.6,5.88-11,16.46-15.81,1.53-.7,3.16-1.4,4.88-2.07,1.52-.6,3.12-1.19,4.8-1.76v1.35c-.08,8.02,6.35,14.6,14.37,14.68,.1,0,.2,0,.31,0H398.58c8.02,.09,14.59-6.34,14.68-14.36,0-.11,0-.21,0-.32v-1.87c1.67,.53,3.27,1.1,4.8,1.71,1.73,.65,3.37,1.31,4.92,1.99,11.5,4.98,17.9,10.58,17.9,16.46Z"/></svg>