<?xml version="1.0" encoding="UTF-8"?><svg id="Layer_1" xmlns="http://www.w3.org/2000/svg" viewBox="0 0 500 500"><defs><style>.cls-1{isolation:isolate;opacity:.25;}.cls-1,.cls-2{fill:#0f6788;}</style></defs><path class="cls-1" d="M419.12,314.73c-.26-.4-.53-.79-.81-1.18,2.45,1.69,4.73,3.57,6.8,5.61,.6,.58,1.17,1.17,1.72,1.77,.05-.06,.11-.12,.16-.18,.07,.38,.13,.81,.19,1.32,0,.22,.02,.46,.03,.69,.02,.25,.03,.49,.03,.73,.02,1.62-.24,3.27-.76,4.88-.2,.6-.44,1.2-.72,1.79-.2-.85-.43-1.69-.67-2.53-.03-.13-.07-.26-.11-.39l-.18-.6c-.2-.63-.43-1.3-.67-1.96l-.07-.16-.17-.53c-.19-.5-.39-1-.61-1.5-.8-1.89-1.74-3.77-2.8-5.57-.21-.36-.42-.7-.62-1.03l-.74-1.16Z"/><g><g><path class="cls-2" d="M226.07,230.76c0,5.97-4.83,10.81-10.79,10.81-5.97,0-10.81-4.83-10.81-10.79,0-5.97,4.83-10.81,10.79-10.81h0c5.96,0,10.8,4.83,10.8,10.79Z"/><path class="cls-2" d="M223.33,213.6c-2.08-1.17-4.43-1.76-6.81-1.72-3.63,0-6.77,1.23-8.41,3.04-.87,.79-2.03,1.21-3.21,1.15h0c-3.1,0-4.97-2.4-3.21-4.12,3.13-2.99,8.6-4.97,14.81-4.97,4.37-.08,8.67,1.03,12.46,3.21,2.57,1.53-4.53,4.09-5.63,3.41Z"/><path class="cls-2" d="M283.82,213.6c2.08-1.17,4.43-1.76,6.81-1.72,3.63,0,6.77,1.23,8.41,3.04,.87,.79,2.03,1.21,3.21,1.15h0c3.09,0,4.96-2.4,3.16-4.12-3.13-2.99-8.6-4.97-14.81-4.97-4.37-.08-8.67,1.03-12.46,3.21-2.52,1.53,4.58,4.09,5.68,3.41Z"/><path class="cls-2" d="M302.66,230.76c0,5.97-4.83,10.81-10.79,10.81-5.97,0-10.81-4.83-10.81-10.79,0-5.97,4.83-10.81,10.79-10.81h0c5.96-.02,10.81,4.8,10.83,10.76v.04h-.03Z"/><path class="cls-2" d="M273.13,292.51v.18c0,.99-.81,1.8-1.81,1.8h-35.62c-1-.08-1.74-.95-1.67-1.95,.09-.9,.24-1.78,.44-2.64,2.22-9.41,11.11-15.97,21.01-15.01,8.44,.82,15.3,6.94,17.21,15.01,.2,.85,.35,1.72,.44,2.61Z"/><path class="cls-2" d="M436.99,316.14c-.36-2.08-.84-4.18-1.44-6.22l-.17-.58c-.3-1-.56-1.78-.82-2.48l-.25-.68c-.49-1.36-1.04-2.71-1.64-4.02-.04-.08-.08-.15-.11-.23,29.65-36.87,23.81-91-13.04-120.7-15.22-12.26-34.36-19.02-53.9-19.02h-.08c-1.69,0-3.35,.05-4.98,.15-4.9-46.29-46.19-80.4-92.73-76.26-32.3,2.87-59.7,23.2-71.81,53.18-17.97-3.67-36.32-.3-51.83,9.56-15.88,10.08-26.88,25.75-30.97,44.11-1.06,4.74-1.63,9.61-1.69,14.47h-.38c-16.92,.2-32.76,6.97-44.58,19.07-11.83,12.1-18.24,28.08-18.05,45,.16,13.7,4.65,26.74,12.81,37.49,1.75,2.31,3.66,4.5,5.74,6.58,1.61,1.6,3.29,3.11,5.03,4.53,6.84,5.53,14.68,9.53,23.08,11.81,5.15,1.4,10.51,2.15,15.98,2.21h210.3c.02,.15,.03,.3,.05,.45,.1,.74,.22,1.48,.39,2.4,1.61,8.63,5.22,16.92,10.43,23.98l.82,1.12c4.95,6.37,11.04,11.58,18.09,15.47,1.29,.72,2.71,1.42,4.33,2.15l.94,.42c2.16,.91,4.39,1.7,6.59,2.32,.37,.12,.77,.24,1.1,.31,1.51,.4,3.16,.77,5.23,1.15,2.09,.36,4.21,.6,6.28,.72,1.12,.08,2.31,.12,3.64,.12,2.43,0,4.88-.16,7.28-.45,1.63-.19,3.39-.49,5.39-.92,2.51-.56,5-1.29,7.41-2.16,6.24-2.28,12-5.59,17.11-9.83l1.46-1.2c2.8-2.46,5.38-5.2,7.66-8.14,.16-.2,.3-.4,.44-.6l.25-.32c.17-.22,.31-.42,.45-.64l.16-.27c1.7-2.36,3.23-4.86,4.55-7.46,.84-1.64,1.6-3.34,2.27-5.06l.46-.91v-.33c.47-1.26,.89-2.54,1.26-3.81l.06-.17c.07-.22,.13-.45,.18-.69,.23-.8,.44-1.65,.65-2.54,.26-1.16,.5-2.38,.7-3.64,.01-.04,.01-.08,.02-.12,.09-.54,.17-1.09,.24-1.65l.02-.38c.1-.77,.18-1.61,.25-2.6,.05-.51,.08-1.06,.12-1.67,0-.48,.02-.96,.04-1.43,.01-.51,.03-1.01,.03-1.51,.01-3.36-.26-6.75-.82-10.07h0Zm-325.82,6.83c-2.62-.01-5.2-.21-7.72-.59-13.83-2.08-25.9-9.61-33.94-20.33-6.57-8.75-10.45-19.62-10.43-31.37,.05-28.74,23.45-52.08,52.19-52.08h6.02c1.48,0,2.87-.58,3.92-1.62,1.06-1.05,1.64-2.44,1.64-3.92,0-.16,0-.31-.02-.46-.11-1.42-.17-2.85-.17-4.36,.03-15.85,6.23-30.74,17.45-41.93,11.21-11.17,26.08-17.32,41.9-17.32h.09c5.38,0,10.72,.75,15.87,2.19,2.86,.86,5.93-.76,6.82-3.59,6.32-18.86,19.61-34.13,37.41-43,17.81-8.87,38-10.28,56.86-3.96,29.26,9.8,49.67,37.1,50.78,67.93,.04,1.56,.76,3.04,1.98,4.06,1.2,.98,2.7,1.42,4.27,1.27,3.12-.39,6.29-.58,9.43-.59h.03c19.97,0,38.74,7.78,52.87,21.89,14.13,14.12,21.91,32.9,21.92,52.88,.01,15.61-4.74,30.51-13.75,43.22-.05,.08-.11,.15-.16,.23-.57-.78-1.16-1.54-1.77-2.28-7.17-8.82-16.69-15.31-27.51-18.76-.97-.31-1.95-.59-2.94-.84l-.17-.03c-1.37-.36-2.78-.68-4.19-.94-4.96-.89-10.04-1.15-15.07-.75-1.41,.11-2.75,.25-4,.44-1.55,.23-2.89,.48-4.24,.78l-.31,.06c-2.2,.51-4.39,1.16-6.54,1.93l-1.94,.73c-.9,.33-1.74,.7-2.44,1.02-.79,.36-1.39,.65-2.1,.99l-2.16,1.1-.82,.46v.06c-1.08,.61-2.16,1.28-3.43,2.13l-1.36,.93c-.44,.32-.89,.66-1.34,1l-.88,.67c-.81,.66-1.63,1.35-2.38,2-.5,.42-1,.88-1.46,1.35-1.14,1.03-2.3,2.22-3.4,3.46l-1.91,1.88v.31c-.15,.17-.3,.36-.4,.5-.5,.62-.97,1.25-1.37,1.81-.7,.91-1.42,1.95-2.19,3.17-.05,.07-.09,.13-.13,.19-.09,.13-.18,.28-.26,.42-1.53,2.44-2.88,5.01-4.01,7.64-.73,1.67-1.35,3.29-1.87,4.93l-.22,.64c-.45,1.42-.83,2.94-1.25,4.58-.5,2.2-.88,4.46-1.13,6.7v.34c-.11,.94-.18,1.88-.23,2.83H111.17Zm315.49,9.4l-.02,.37c-.2,1.47-.46,2.83-.76,4.07-.18,.74-.35,1.47-.57,2.21l-.14,.5c-.37,1.27-.79,2.51-1.25,3.69l-.47,.94v.29c-.51,1.22-1.02,2.33-1.57,3.39-1.13,2.24-2.46,4.39-3.96,6.43l-.67,.92c-.06,.08-.12,.15-.17,.23-1.05,1.35-2.16,2.64-3.34,3.86-1.28,1.32-2.63,2.56-4.05,3.73l-.78,.64c-3.99,3.15-8.43,5.64-13.21,7.38-1.96,.72-3.98,1.31-6,1.75-1.45,.32-2.93,.58-4.37,.78-2.95,.37-5.94,.47-8.92,.28-1.72-.1-3.45-.3-5.17-.6-1.42-.23-2.86-.55-4.26-.93l-.37-.1h-.06c-.06-.02-.12-.04-.18-.06l-.21-.07c-1.83-.51-3.64-1.15-5.36-1.89l-.86-.37c-1.06-.47-2.13-1-3.47-1.73-3.05-1.68-5.92-3.68-8.53-5.98-.02-.01-.04-.02-.06-.05-.37-.33-.74-.67-1.11-1.01-1.63-1.52-3.16-3.17-4.54-4.87l-.55-.72c-4.63-5.96-7.8-13.04-9.18-20.43,0,0-.16-.91-.16-.92h.32l-.29-1.75c-.41-2.42-.62-4.9-.65-7.35,.04-1.32,.11-2.65,.25-3.97v-.19c.21-1.77,.52-3.55,.91-5.26,.34-1.43,.74-2.86,1.18-4.23l.14-.4c.41-1.22,.87-2.41,1.41-3.64,.36-.85,.76-1.69,1.18-2.51,.63-1.28,1.34-2.53,2.09-3.74l.3-.47c.58-.91,1.14-1.73,1.76-2.55l.41-.54c.26-.35,.54-.71,.79-1.06l.3-.36c.32-.41,.65-.8,.99-1.18l1.04-1.12,.71-.76c.52-.53,1.03-1.05,1.54-1.53l.17-.15c.29-.3,.6-.58,.99-.91,.66-.58,1.33-1.14,2.01-1.68l.48-.37c.35-.27,.7-.53,1.05-.78l1.44-1.03c.84-.57,1.74-1.12,2.83-1.76,.78-.46,1.55-.88,2.31-1.24l1.36-.67c.16-.07,.32-.14,.43-.2,.6-.28,1.2-.52,1.8-.76l.29-.11h1.35l.73-.75c1.58-.54,3.19-1.01,4.81-1.37l.18-.04c1.2-.27,2.3-.47,3.42-.62,1.13-.15,2.1-.28,3.26-.36,2.39-.18,4.83-.18,7.23,0,1.69,.13,3.38,.35,5.03,.64,1.16,.23,2.39,.49,3.62,.78l.5,.14c.6,.16,1.21,.33,1.83,.53,8.82,2.83,16.58,8.12,22.44,15.31,.71,.87,1.39,1.77,2.03,2.69,.28,.39,.55,.78,.81,1.18l.74,1.16c.2,.33,.41,.67,.62,1.03,1.06,1.8,2,3.68,2.8,5.57,.22,.5,.42,1,.61,1.5l.17,.53,.07,.16c.24,.66,.47,1.33,.67,1.96l.18,.6c.04,.13,.08,.26,.11,.39,.24,.84,.47,1.68,.67,2.53h0c.2,.86,.38,1.72,.53,2.58,.33,1.9,.54,3.83,.64,5.79,.04,.84,.07,1.69,.07,2.55,.04,.68,.03,1.37,.01,2.02,0,.13,0,.26-.01,.39-.02,.38-.04,.74-.07,1.1-.07,.88-.16,1.73-.27,2.55Z"/><path class="cls-2" d="M399.75,346.28s-.01,.01-.01,.01l-.31,.31c-1.96,1.96-5.13,1.96-7.09,.01,0-.01-.01-.01-.01-.01l-13.1-13.1-12.94,12.94c-1.96,1.96-5.15,1.96-7.11,0-1.96-1.96-1.96-5.15,0-7.11l12.94-12.94-.39-.39-12.71-12.7c-1.96-1.96-1.96-5.15,0-7.11l.31-.31c1.96-1.97,5.15-1.97,7.11-.01h0s13.1,13.11,13.1,13.11l12.95-12.94c1.96-1.96,5.14-1.96,7.1,0,1.96,1.97,1.96,5.15-.01,7.1l-12.94,12.95,4.36,4.36,8.74,8.73c1.97,1.96,1.97,5.14,.01,7.1Z"/></g><path class="cls-1" d="M234.03,292.54c.09-.9,.24-1.78,.44-2.64h38.22c.2,.85,.35,1.72,.44,2.61v.18c0,.99-.81,1.8-1.81,1.8h-35.62c-1-.08-1.74-.95-1.67-1.95Z"/><path class="cls-1" d="M408,386.24c-12.58,5.09-36,6-51.95-3.73h-.07c-1.39,0-2.77-.02-4.11-.06-4.05,19.21-38.17,33.36-76.64,31.65-26.68-1.2-49.33-9.62-59.34-22.08-14.84,1.53-30,.13-42.83-3.96-13.12-4.19-22.21-10.69-25.59-18.31-.88-1.96-1.34-3.99-1.39-6h-.32c-13.98-.08-27.07-2.9-36.84-7.91-9.77-5.03-15.07-11.66-14.92-18.68,.05-1.79,.44-3.55,1.18-5.26,1.17-2.73,3.19-5.33,6-7.73,.13-.12,.26-.23,.4-.34,.59-.49,1.21-.97,1.87-1.44,2.52,.38,5.1,.58,7.72,.59h1.65c8.09,6.25,19.27,10.12,31.59,10.14h180.33c.04-.63,.1-1.25,.19-1.88v-.22c.22-1.49,.55-2.99,.98-4.45,.36-1.09,.69-2.1,1.08-3.04l.18-.43c.45-1.08,.98-2.16,1.61-3.27,.97-1.74,2.88,16.38,2.88,16.39,0,0,4.16,13.15,8.26,18.25l.49,.62c1.22,1.45,2.58,2.87,4.02,4.17,1.1,1,2.25,1.94,3.45,2.8,.02,.03,.04,.04,.06,.05,2.61,2.3,5.48,4.3,8.53,5.98,1.34,.73,2.41,1.26,3.47,1.73l.86,.37c1.72,.74,3.53,1.38,5.36,1.89l.21,.07c.06,.02,.12,.04,.18,.06h.06l.37,.1c1.4,.38,2.84,.7,4.26,.93,1.72,.3,3.45,.5,5.17,.6,2.98,.19,5.97,.09,8.92-.28,1.44-.2,2.92-.46,4.37-.78,2.02-.44,4.04-1.03,6-1.75,4.78-1.74,9.22-4.23,13.21-7.38l.78-.64c1.42-1.17,2.77-2.41,4.05-3.73,1.18-1.22,2.29-2.51,3.34-3.86,.05-.08,.11-.15,.17-.23l.67-.92c1.5-2.04,2.83-4.19,3.96-6.43,.55-1.06,1.06-2.17,1.57-3.39v-.29l.47-.94c.46-1.18,.88-2.42,1.25-3.69l.14-.5c.22-.74,.39-1.47,.57-2.21,.3-1.24,.56-2.6,.76-4.07l.02-.37c.11-.82,.2-1.67,.27-2.55,4.66,.71,9.06,1.89,10.07,5.41,.03,.11,.06,.23,.09,.34,3.71,14.05-7.14,41.78-29.09,50.66Z"/></g></svg>