<?xml version="1.0" encoding="UTF-8"?><svg id="Layer_2" xmlns="http://www.w3.org/2000/svg" viewBox="0 0 500 500"><defs><style>.cls-1{fill:#0f6788;}</style></defs><path class="cls-1" d="M356.58,178.84l-12.51-7.48-6.44-3.85-20.23-12.1c-.45-.27-.97-.42-1.5-.42H52.93c-1.62,0-2.93,1.31-2.93,2.93v12.17c0,.96,.47,1.85,1.25,2.4l11.27,7.9,76.35,53.54c1.66,1.17,1.66,3.63,0,4.8l-76.35,53.54-11.27,7.9c-.78,.55-1.25,1.44-1.25,2.4v12.17c0,1.62,1.31,2.93,2.93,2.93H316.7l20.93-12.51,6.44-3.85,12.51-7.48,91.99-54.98c1.9-1.14,1.9-3.89,0-5.03l-91.99-54.98ZM76.76,299.83l87.13-61.1c1.66-1.17,1.66-3.63,0-4.8l-87.13-61.1c-2.34-1.64-1.18-5.33,1.68-5.33h237.42c.55,0,1.08,.15,1.54,.44l106.24,65.84c1.87,1.16,1.84,3.89-.05,5.01l-110.99,65.95c-.45,.27-.97,.41-1.5,.41H78.45c-2.86,0-4.03-3.69-1.68-5.33Z"/></svg>