<?xml version="1.0" encoding="UTF-8"?><svg id="Layer_1" xmlns="http://www.w3.org/2000/svg" viewBox="0 0 500 500"><defs><style>.cls-1{fill:#0f6788;}.cls-2{fill:none;}</style></defs><rect class="cls-2" x="50" y="50" width="400" height="400"/><g><path class="cls-1" d="M185.56,347.31l2.19,1.73c.56,.45,1.24,.69,1.97,.69,.99,0,1.91-.46,2.52-1.25l39.54-51.88c8.38,3.98,40.13,19.4,43.83,21.2l.32,.15c1.31,.64,2.88,.28,3.82-.87,1.23-1.53,8.89-11.08,16.14-20.12l10.14-12.65,.67,9.15c.13,1.66,1.52,2.97,3.17,2.97h2.6c.89,0,1.75-.38,2.33-1.03,.59-.64,.9-1.52,.84-2.42l-1.6-22.3h0c-.07-.88-.48-1.7-1.14-2.24-.68-.57-1.56-.83-2.41-.71l-21.84,2.71c-.97,.1-1.82,.65-2.33,1.48-.51,.82-.63,1.81-.33,2.73l.87,2.67c.48,1.47,2,2.42,3.41,2.18l8.72-1.1c-6.82,8.51-19.21,23.96-23.37,29.14-8.09-3.92-40.9-19.82-44.23-21.43-1.35-.66-2.95-.28-3.89,.93l-42.51,55.77c-.51,.68-.74,1.52-.63,2.37,.11,.84,.53,1.6,1.2,2.13Zm1.23-1.59h0s0,0,0,0h0Z"/><path class="cls-1" d="M366.75,235.53c-12.85-21.62-31.29-39.28-53.32-51.07-2.11-1.15-3.84-2.88-4.99-5.03-.59-1.08-1.01-2.22-1.25-3.39-.3-1.44-.35-2.88-.16-4.29,1.78-13.44,6.48-25.77,9.29-33.14,6.86-17.93,15.8-30.99,21.74-39.66,6.44-9.47,10.33-15.18,6.74-20.63-4.1-6.21-11.32-2.47-18.33,1.16-8.56,4.42-20.28,10.46-32.5,7.4-10.55-2.65-16.78-11.06-22.28-18.48-5.69-7.67-11.56-15.59-21.35-14.24-11.16,1.57-15.85,13.96-20.38,25.95-4.45,11.69-9.49,24.95-20.16,30.89-15.23,8.45-35.67-1.59-49.18-8.24-9.07-4.48-13.24-6.4-17.08-4.91-1.72,.64-3.05,1.95-3.74,3.68-2.34,5.74,2.21,10.42,7.97,16.36,6.65,6.83,16.7,17.14,24.05,34.4,2.03,4.74,6.77,15.84,8.26,30.14l.06,.56c.1,1,0,1.95-.31,2.93-.51,1.85-1.72,3.48-3.42,4.59-41.02,26.82-65,74.24-62.6,123.76,3.42,70.53,60.4,128.32,129.72,131.58,2.08,.1,4.21,.15,6.53,.15,35.22,0,68.64-13.63,94.09-38.38,27.22-26.42,42.21-62.06,42.21-100.35,0-25.35-6.78-50.16-19.6-71.75Zm-103.31-160.78c6.2,8.37,13.91,18.79,28.04,22.31,16.02,4.02,30.27-3.36,39.71-8.25,.46-.24,1.05-.54,1.7-.87-1.21,1.86-2.54,3.8-3.47,5.15-6.17,9.04-15.49,22.69-22.86,41.95-2.95,7.74-7.88,20.69-9.79,35.26-.15,1.05-.22,2.09-.22,3.11,0,1.14,.09,2.28,.26,3.41-16.11,5.61-32.89,8.97-49.89,10-19.06,1.17-38.06-.57-56.48-5.17l-.04-.49h-.02c-1.69-15.7-6.82-27.84-9.04-33.08-7.23-16.94-16.76-27.76-23.88-35.2,14.58,7.15,37.97,18.06,57.3,7.32,13.97-7.76,19.76-22.94,24.87-36.34,3.78-9.97,7.05-18.58,12.1-19.3,3.42-.45,6.32,2.92,11.7,10.18Zm-74.39,116.26c12.5,3.05,25.31,4.87,38.09,5.41,6.6,.28,13.44,.22,20.34-.18,17.95-1.11,35.62-4.68,52.52-10.61,2.13,3.47,5.08,6.26,8.59,8.11,41.58,22.27,67.4,65.78,67.4,113.54,0,35.36-13.85,68.3-38.99,92.75-25.16,24.44-58.18,36.99-92.99,35.31-64.05-3-116.69-56.41-119.83-121.57-2.24-45.78,19.93-89.62,57.85-114.42,3.16-2.07,5.58-4.94,7.03-8.33Z"/></g></svg>